<svg width="36" height="36" viewBox="0 0 36 36" fill="none" xmlns="http://www.w3.org/2000/svg">
<circle cx="18" cy="18" r="18" fill="#1BC775"/>
<g clip-path="url(#clip0_28_97)">
<path d="M15.2578 9.18281C15.1418 9.24258 15.0785 9.30586 15.0223 9.42188C14.9449 9.56953 14.9414 9.62227 14.9414 10.2902V11.0039L14.5301 11.2113C14.3016 11.3238 13.9676 11.5172 13.7883 11.6332L13.4578 11.8512L12.8672 11.5137C12.5437 11.3273 12.2273 11.1586 12.1605 11.141C11.9988 11.0883 11.7562 11.1551 11.6437 11.2781C11.598 11.3309 10.9863 12.368 10.2797 13.5879C9.03867 15.7395 9.00352 15.8098 9 15.9891C9 16.323 9.05625 16.3723 10.125 16.977L10.3887 17.1246V18V18.8754L10.125 19.023C9.05625 19.6277 9 19.677 9 20.0109C9.00352 20.1902 9.03867 20.2605 10.2797 22.4121C10.9863 23.6285 11.598 24.6691 11.6437 24.7219C11.7562 24.8449 11.9988 24.9117 12.1605 24.859C12.2273 24.8414 12.5437 24.6727 12.8672 24.4863L13.4578 24.1488L13.7883 24.3668C13.9676 24.4828 14.3016 24.6762 14.5301 24.7887L14.9414 24.9961V25.7098C14.9414 26.3777 14.9449 26.4305 15.0223 26.5781C15.0785 26.6941 15.1418 26.7574 15.2578 26.8137L15.4125 26.8945H18H20.5875L20.7422 26.8137C20.8582 26.7574 20.9215 26.6941 20.9812 26.5781C21.0551 26.4305 21.0586 26.3777 21.0586 25.7098V24.9961L21.4734 24.7887C21.6984 24.6762 22.0324 24.4828 22.2152 24.3633L22.5422 24.1488L23.1328 24.4863C23.4562 24.6727 23.7762 24.8414 23.843 24.8625C24.0012 24.9117 24.2437 24.8449 24.3562 24.7219C24.402 24.6691 25.0172 23.6285 25.7203 22.4121C26.9648 20.2535 27 20.1938 27 20.0074C27 19.7016 26.9438 19.6453 26.2371 19.234L25.6113 18.8684V18V17.1316L26.2371 16.766C26.9438 16.3547 27 16.2984 27 15.9926C27 15.8063 26.9648 15.7465 25.7203 13.5879C25.0172 12.368 24.402 11.3309 24.3562 11.2781C24.2437 11.1551 24.0012 11.0883 23.843 11.1375C23.7762 11.1586 23.4562 11.3273 23.1328 11.5137L22.5422 11.8512L22.2152 11.6367C22.0324 11.5172 21.6984 11.3238 21.4734 11.2113L21.0586 11.0039V10.2902C21.0586 9.62227 21.0551 9.56953 20.9812 9.42188C20.9215 9.30586 20.8582 9.24258 20.7422 9.18281L20.5875 9.10547H18H15.4125L15.2578 9.18281ZM19.9336 15.2754C20.9074 15.5777 21.4594 16.5164 21.2168 17.4551C21.0902 17.9367 20.7141 18.3867 20.25 18.6082C19.916 18.7664 19.6805 18.8086 19.1355 18.8086H18.7031V19.5715C18.7031 20.25 18.6926 20.3555 18.6328 20.4855C18.4746 20.8371 18.007 20.8828 17.7715 20.5734C17.7012 20.482 17.7012 20.4223 17.7012 17.993V15.5039L17.8277 15.3773C17.898 15.307 18.0105 15.2367 18.0738 15.2191C18.1406 15.2051 18.5414 15.1945 18.9668 15.2016C19.568 15.2121 19.7824 15.2297 19.9336 15.2754ZM14.9344 15.2719C15.1664 15.3914 15.1945 15.4582 16.098 17.8559C16.5832 19.1391 16.9805 20.2324 16.9805 20.2922C16.9805 20.5418 16.7484 20.7773 16.5023 20.7773C16.2105 20.7773 16.0805 20.6648 15.9398 20.3027C15.8906 20.1656 15.8168 19.9723 15.7781 19.8703L15.7078 19.6875L14.6707 19.6945L13.6301 19.7051L13.4789 20.1023C13.3945 20.3203 13.2996 20.5383 13.268 20.5875C13.0852 20.8617 12.5824 20.8301 12.4277 20.5312C12.3996 20.475 12.375 20.3695 12.375 20.2922C12.375 20.1234 14.1047 15.5602 14.2137 15.4371C14.4035 15.2297 14.7164 15.1594 14.9344 15.2719ZM22.7531 15.2824C22.8094 15.3176 22.8902 15.402 22.9324 15.4688L23.0098 15.5918V18C23.0098 20.3449 23.0062 20.4117 22.9395 20.5242C22.7355 20.8617 22.2645 20.8617 22.0605 20.5242C21.9937 20.4117 21.9902 20.3449 21.9902 18C21.9902 15.7465 21.9937 15.5848 22.0535 15.4758C22.1801 15.2402 22.5211 15.1488 22.7531 15.2824Z" fill="white"/>
<path d="M18.7031 17.0156V17.7891H19.1355C19.6348 17.7891 19.8281 17.7398 20.0004 17.5711C20.4047 17.1773 20.3062 16.5375 19.8105 16.309C19.6945 16.2563 19.582 16.2422 19.1883 16.2422H18.7031V17.0156Z" fill="white"/>
<path d="M14.6495 17.0402C14.6319 17.0648 14.1819 18.2461 14.0765 18.5344L14.0308 18.668H14.6601C15.1347 18.668 15.2929 18.6574 15.2929 18.6258C15.2929 18.5695 14.7304 17.0754 14.6952 17.0402C14.6812 17.0227 14.6601 17.0227 14.6495 17.0402Z" fill="white"/>
</g>
<defs>
<clipPath id="clip0_28_97">
<rect width="18" height="18" fill="white" transform="translate(9 9)"/>
</clipPath>
</defs>
</svg>
