<svg width="28" height="28" viewBox="0 0 28 28" fill="none" xmlns="http://www.w3.org/2000/svg">
<path d="M13.5898 2.25059C13.3164 2.2834 13.0922 2.35449 12.7695 2.51308C11.4406 3.16933 10.8445 4.69512 11.375 6.07871C11.6375 6.75683 12.3648 7.4623 13.032 7.69199L13.2781 7.77402L13.0867 8.4959C12.4523 10.8857 11.6156 12.5373 10.5219 13.56C9.89844 14.1451 9.28594 14.4459 8.58594 14.5225C6.87422 14.7029 4.9 13.0295 3.64766 10.3334L3.40703 9.81387L3.75156 9.50215C3.99219 9.27793 4.15078 9.07559 4.27656 8.81855C4.44609 8.47402 4.45703 8.4248 4.45703 7.85058C4.45703 7.29277 4.44609 7.22168 4.2875 6.88809C3.47266 5.1709 1.01719 5.15996 0.202344 6.87715C0.0382812 7.22715 0.0273438 7.2873 0.0273438 7.85058C0.0273438 8.39199 0.04375 8.48496 0.175 8.76933C0.459375 9.37637 1.15391 9.93965 1.74453 10.0381C1.90312 10.0654 1.96328 10.1037 1.98516 10.1912C2.00156 10.2568 2.48828 12.7889 3.06797 15.824L4.12344 21.3311H14H23.8766L24.932 15.8186C25.5117 12.7889 25.9984 10.2568 26.0148 10.1912C26.0367 10.1037 26.0969 10.0654 26.2555 10.0381C26.8461 9.93965 27.5406 9.37637 27.825 8.76933C27.9562 8.48496 27.9727 8.39199 27.9727 7.85058C27.9727 7.2873 27.9617 7.22715 27.7977 6.87715C26.9828 5.15996 24.5273 5.1709 23.7125 6.88809C23.5539 7.22168 23.543 7.29277 23.543 7.85058C23.543 8.4248 23.5539 8.47402 23.7234 8.81855C23.8492 9.07559 24.0078 9.27793 24.2539 9.50215L24.5984 9.8248L24.2375 10.5576C23.2258 12.592 21.9023 13.9701 20.5352 14.4021C19.9828 14.5771 19.25 14.5607 18.7469 14.3693C18.2109 14.167 17.9375 13.9865 17.4781 13.56C16.3844 12.5373 15.5477 10.8857 14.9133 8.4959L14.7219 7.77402L14.968 7.69199C15.6352 7.4623 16.3625 6.75683 16.625 6.07871C17.15 4.70605 16.5594 3.1748 15.2469 2.51855C14.8641 2.32715 14.6727 2.27793 14.1367 2.22871C14.0492 2.21777 13.8031 2.22871 13.5898 2.25059Z" fill="#FFC000"/>
<path d="M4.63185 22.4303C3.43966 22.7146 2.94748 24.1748 3.71857 25.1482C3.87169 25.3451 4.03576 25.4764 4.30373 25.6076L4.6756 25.7881H13.9998H23.324L23.6959 25.6076C24.9865 24.9678 24.9647 23.1139 23.6576 22.5232L23.3787 22.3975L14.1092 22.3865C8.81544 22.3865 4.75216 22.4029 4.63185 22.4303Z" fill="#FFC000"/>
</svg>
