<svg width="46" height="46" viewBox="0 0 46 46" fill="none" xmlns="http://www.w3.org/2000/svg">
<g clip-path="url(#clip0_56_15)">
<path d="M13.9056 13.3869C14.3949 15.194 15.6898 19.9706 16.779 24.0073L18.7654 31.3444L21.5293 28.2403C23.7716 25.7178 24.2984 25.1491 24.3453 25.1904C24.3781 25.2194 26.3142 27.6445 28.6491 30.5716C30.9847 33.5075 32.9103 35.9067 32.9321 35.9009C32.9586 35.8993 32.902 35.6327 32.8064 35.3066C32.7107 34.9804 31.2893 30.0922 29.6476 24.4428L26.6633 14.1747L23.9077 17.2695C21.653 19.806 21.1386 20.3606 21.0917 20.3193C21.0542 20.2862 19.2493 17.9769 17.0643 15.1821C14.8881 12.3868 13.089 10.0992 13.0672 10.105C13.0408 10.1067 13.4209 11.584 13.9056 13.3869Z" fill="#FFC000"/>
</g>
<defs>
<clipPath id="clip0_56_15">
<rect width="32" height="32" fill="white" transform="translate(0.416504 24.4146) rotate(-48.5768)"/>
</clipPath>
</defs>
</svg>
