<svg width="21" height="12" viewBox="0 0 21 12" fill="none" xmlns="http://www.w3.org/2000/svg">
<path d="M14.3984 11.8047C14.1758 11.7266 14.0664 11.6407 13.9453 11.461C13.8516 11.3204 13.8398 11.2618 13.8398 10.9961C13.8398 10.7227 13.8516 10.6797 13.957 10.5235C14.0234 10.4336 14.1563 10.3125 14.25 10.2579L14.4258 10.1602L16 10.1407L17.5703 10.1211L14.6602 7.21098L11.75 4.30083L9.92578 6.12505C8.91797 7.12504 8.03906 7.9727 7.97266 8.00786C7.76953 8.10942 7.52735 8.12504 7.3125 8.05473C7.13672 8.00004 6.82031 7.69145 3.87109 4.74223C2.08594 2.95317 0.597656 1.43364 0.5625 1.36333C0.480469 1.19927 0.480469 0.800828 0.5625 0.636765C0.78125 0.203171 1.29297 0.0273902 1.72266 0.242234C1.78906 0.27739 3.14063 1.5938 4.71875 3.17192L7.58985 6.03911L9.40625 4.2188C10.4063 3.2188 11.2891 2.36723 11.3672 2.32426C11.5625 2.2227 11.9375 2.2227 12.1328 2.32426C12.2148 2.36723 13.7188 3.8438 15.5391 5.66411L18.8008 8.92973L18.8203 7.31254L18.8398 5.69536L18.957 5.52348C19.332 4.99614 20.1328 5.04301 20.4219 5.61333C20.4961 5.75786 20.5 5.85161 20.5 8.50004C20.5 11.1172 20.4961 11.2422 20.4258 11.3829C20.3242 11.5821 20.1602 11.7266 19.957 11.8008C19.8086 11.8516 19.4297 11.8594 17.1641 11.8594C15.082 11.8555 14.5117 11.8438 14.3984 11.8047Z" fill="#F31317"/>
</svg>
