<svg width="21" height="12" viewBox="0 0 21 12" fill="none" xmlns="http://www.w3.org/2000/svg">
<path d="M14.3984 0.195268C14.1758 0.273393 14.0664 0.35933 13.9453 0.539018C13.8516 0.679643 13.8398 0.738236 13.8398 1.00386C13.8398 1.2773 13.8516 1.32027 13.957 1.47652C14.0234 1.56636 14.1563 1.68746 14.25 1.74214L14.4258 1.8398L16 1.85933L17.5703 1.87886L14.6602 4.78902L11.75 7.69917L9.92578 5.87495C8.91797 4.87496 8.03906 4.0273 7.97266 3.99214C7.76953 3.89058 7.52735 3.87496 7.3125 3.94527C7.13672 3.99996 6.82031 4.30855 3.87109 7.25777C2.08594 9.04683 0.597656 10.5664 0.5625 10.6367C0.480469 10.8007 0.480469 11.1992 0.5625 11.3632C0.78125 11.7968 1.29297 11.9726 1.72266 11.7578C1.78906 11.7226 3.14063 10.4062 4.71875 8.82808L7.58985 5.96089L9.40625 7.7812C10.4063 8.7812 11.2891 9.63277 11.3672 9.67574C11.5625 9.7773 11.9375 9.7773 12.1328 9.67574C12.2148 9.63277 13.7188 8.1562 15.5391 6.33589L18.8008 3.07027L18.8203 4.68746L18.8398 6.30464L18.957 6.47652C19.332 7.00386 20.1328 6.95699 20.4219 6.38667C20.4961 6.24214 20.5 6.14839 20.5 3.49996C20.5 0.882768 20.4961 0.757768 20.4258 0.617143C20.3242 0.417924 20.1602 0.273393 19.957 0.199174C19.8086 0.148393 19.4297 0.14058 17.1641 0.14058C15.082 0.144486 14.5117 0.156205 14.3984 0.195268Z" fill="#0AD83D"/>
</svg>
