<svg width="80" height="79" viewBox="0 0 80 79" fill="none" xmlns="http://www.w3.org/2000/svg">
<g filter="url(#filter0_d_63_73)">
<mask id="path-1-inside-1_63_73" fill="white">
<path d="M8 38C8 20.3269 22.3269 6 40 6C57.6731 6 72 20.3269 72 38C72 55.6731 57.6731 70 40 70C22.3269 70 8 55.6731 8 38Z"/>
</mask>
<path d="M8 38C8 20.3269 22.3269 6 40 6C57.6731 6 72 20.3269 72 38C72 55.6731 57.6731 70 40 70C22.3269 70 8 55.6731 8 38Z" fill="url(#paint0_linear_63_73)" shape-rendering="crispEdges"/>
<path d="M8 36.8959C8 19.2228 22.3269 4.89588 40 4.89588C57.6731 4.89588 72 19.2228 72 36.8959V38C72 20.9367 57.6731 7.10412 40 7.10412C22.3269 7.10412 8 20.9367 8 38V36.8959ZM72 70H8H72ZM8 70V6V70ZM72 6V70V6Z" fill="#FFE187" mask="url(#path-1-inside-1_63_73)"/>
<path d="M43.123 32.505C42.898 31.1112 43.7917 29.6987 45.1292 29.3425C45.8667 29.1425 46.7542 29.2612 47.3917 29.6362C47.7292 29.83 48.2605 30.3862 48.4292 30.7175C49.3292 32.4862 48.323 34.5237 46.373 34.8737C44.8542 35.1425 43.373 34.0675 43.123 32.505Z" fill="black"/>
<path d="M43.123 32.505C42.898 31.1112 43.7917 29.6987 45.1292 29.3425C45.8667 29.1425 46.7542 29.2612 47.3917 29.6362C47.7292 29.83 48.2605 30.3862 48.4292 30.7175C49.3292 32.4862 48.323 34.5237 46.373 34.8737C44.8542 35.1425 43.373 34.0675 43.123 32.505Z" fill="url(#paint1_linear_63_73)"/>
<path fill-rule="evenodd" clip-rule="evenodd" d="M41.7542 24.5362C44.2417 23.2175 47.6855 22.28 50.9417 22.0362C51.098 22.0237 51.973 22.0112 52.8855 22.005C54.8667 21.9925 55.0417 22.0237 55.5105 22.4925C56.0042 22.9862 56.0292 23.1362 55.9855 25.4862C55.9605 26.9737 55.923 27.6925 55.823 28.3987C55.1792 33.13 53.6792 36.68 50.948 39.9487C48.9105 42.3925 46.5167 44.4112 43.873 45.93L43.1042 46.3675L31.6355 34.905L31.8917 34.43C34.1167 30.3612 37.873 26.5987 41.7542 24.5362ZM47.973 27.93C47.6292 27.7612 47.148 27.58 46.898 27.53C46.3605 27.4112 45.4917 27.4112 44.973 27.5237C43.0292 27.955 41.6167 29.48 41.3167 31.455C41.0167 33.4237 42.1605 35.455 44.0292 36.305C45.6792 37.055 47.5292 36.7737 48.9917 35.5612C49.323 35.2862 49.873 34.5737 50.0855 34.1487C50.548 33.2175 50.6855 32.0237 50.448 31.0362C50.1105 29.63 49.2417 28.5425 47.973 27.93Z" fill="black"/>
<path fill-rule="evenodd" clip-rule="evenodd" d="M41.7542 24.5362C44.2417 23.2175 47.6855 22.28 50.9417 22.0362C51.098 22.0237 51.973 22.0112 52.8855 22.005C54.8667 21.9925 55.0417 22.0237 55.5105 22.4925C56.0042 22.9862 56.0292 23.1362 55.9855 25.4862C55.9605 26.9737 55.923 27.6925 55.823 28.3987C55.1792 33.13 53.6792 36.68 50.948 39.9487C48.9105 42.3925 46.5167 44.4112 43.873 45.93L43.1042 46.3675L31.6355 34.905L31.8917 34.43C34.1167 30.3612 37.873 26.5987 41.7542 24.5362ZM47.973 27.93C47.6292 27.7612 47.148 27.58 46.898 27.53C46.3605 27.4112 45.4917 27.4112 44.973 27.5237C43.0292 27.955 41.6167 29.48 41.3167 31.455C41.0167 33.4237 42.1605 35.455 44.0292 36.305C45.6792 37.055 47.5292 36.7737 48.9917 35.5612C49.323 35.2862 49.873 34.5737 50.0855 34.1487C50.548 33.2175 50.6855 32.0237 50.448 31.0362C50.1105 29.63 49.2417 28.5425 47.973 27.93Z" fill="url(#paint2_linear_63_73)"/>
<path d="M30.2855 30.7425C29.298 30.83 28.8855 30.8862 28.6167 30.9925C27.9605 31.2362 27.748 31.4987 25.8917 34.305C24.948 35.73 24.1355 36.9862 24.0917 37.0987C23.973 37.3737 23.9792 38.03 24.1042 38.3862C24.223 38.7425 24.6105 39.1487 24.973 39.3112C25.2605 39.4425 27.948 39.8862 28.0105 39.8175C28.0292 39.7925 28.098 39.5362 28.1542 39.2425C28.673 36.7612 29.9542 33.8862 31.673 31.38L32.1917 30.6175L31.898 30.6237C31.7292 30.63 31.0105 30.68 30.2855 30.7425Z" fill="black"/>
<path d="M30.2855 30.7425C29.298 30.83 28.8855 30.8862 28.6167 30.9925C27.9605 31.2362 27.748 31.4987 25.8917 34.305C24.948 35.73 24.1355 36.9862 24.0917 37.0987C23.973 37.3737 23.9792 38.03 24.1042 38.3862C24.223 38.7425 24.6105 39.1487 24.973 39.3112C25.2605 39.4425 27.948 39.8862 28.0105 39.8175C28.0292 39.7925 28.098 39.5362 28.1542 39.2425C28.673 36.7612 29.9542 33.8862 31.673 31.38L32.1917 30.6175L31.898 30.6237C31.7292 30.63 31.0105 30.68 30.2855 30.7425Z" fill="url(#paint3_linear_63_73)"/>
<path d="M29.7542 40.7925C29.7542 40.1112 30.173 38.3925 30.6292 37.1925C30.7417 36.9112 30.848 36.68 30.8667 36.68C30.8917 36.68 33.2605 39.03 36.1292 41.8987C40.2605 46.03 41.3292 47.13 41.2542 47.18C41.048 47.3112 39.7292 47.7425 38.8792 47.9612C38.3792 48.0862 37.7292 48.205 37.4292 48.2237C37.3837 48.2267 37.341 48.23 37.3004 48.2331C37.155 48.2442 37.0374 48.2532 36.9221 48.2406C36.4328 48.1867 35.9866 47.7417 33.6462 45.408L33.0045 44.768C30.2791 42.0478 29.8389 41.6084 29.7679 41.1157C29.7542 41.0208 29.7542 40.924 29.7542 40.8084L29.7542 40.7925Z" fill="black"/>
<path d="M29.7542 40.7925C29.7542 40.1112 30.173 38.3925 30.6292 37.1925C30.7417 36.9112 30.848 36.68 30.8667 36.68C30.8917 36.68 33.2605 39.03 36.1292 41.8987C40.2605 46.03 41.3292 47.13 41.2542 47.18C41.048 47.3112 39.7292 47.7425 38.8792 47.9612C38.3792 48.0862 37.7292 48.205 37.4292 48.2237C37.3837 48.2267 37.341 48.23 37.3004 48.2331C37.155 48.2442 37.0374 48.2532 36.9221 48.2406C36.4328 48.1867 35.9866 47.7417 33.6462 45.408L33.0045 44.768C30.2791 42.0478 29.8389 41.6084 29.7679 41.1157C29.7542 41.0208 29.7542 40.924 29.7542 40.8084L29.7542 40.7925Z" fill="url(#paint4_linear_63_73)"/>
<path d="M27.7917 43.4362C27.5855 43.4675 27.348 43.68 25.8667 45.155C24.9417 46.08 24.1417 46.9112 24.0917 47.005C23.8792 47.4112 24.048 47.9925 24.4542 48.2425C24.698 48.3925 25.1855 48.4112 25.4292 48.28C25.523 48.23 26.323 47.4612 27.2042 46.5737C29.0917 44.6862 29.1605 44.5675 28.8855 43.9487C28.698 43.5362 28.2917 43.3487 27.7917 43.4362Z" fill="black"/>
<path d="M27.7917 43.4362C27.5855 43.4675 27.348 43.68 25.8667 45.155C24.9417 46.08 24.1417 46.9112 24.0917 47.005C23.8792 47.4112 24.048 47.9925 24.4542 48.2425C24.698 48.3925 25.1855 48.4112 25.4292 48.28C25.523 48.23 26.323 47.4612 27.2042 46.5737C29.0917 44.6862 29.1605 44.5675 28.8855 43.9487C28.698 43.5362 28.2917 43.3487 27.7917 43.4362Z" fill="url(#paint5_linear_63_73)"/>
<path d="M41.7355 48.93C43.3042 48.3175 45.1605 47.33 46.6292 46.3175C47.2667 45.8737 47.348 45.8362 47.3667 45.955C47.373 46.03 47.3292 46.7487 47.2605 47.555C47.1667 48.68 47.1105 49.105 47.0042 49.38C46.7605 50.0362 46.5042 50.2487 43.698 52.105C42.273 53.0487 41.0105 53.8612 40.898 53.905C40.6292 54.0175 39.9605 54.0175 39.6292 53.8987C39.4855 53.8487 39.2605 53.7237 39.1292 53.6175C38.7167 53.2925 38.598 52.9362 38.3542 51.3987C38.2355 50.6425 38.1542 50.005 38.1792 49.9862C38.2042 49.9612 38.4042 49.9112 38.6292 49.8675C39.3167 49.7425 40.8667 49.2737 41.7355 48.93Z" fill="black"/>
<path d="M41.7355 48.93C43.3042 48.3175 45.1605 47.33 46.6292 46.3175C47.2667 45.8737 47.348 45.8362 47.3667 45.955C47.373 46.03 47.3292 46.7487 47.2605 47.555C47.1667 48.68 47.1105 49.105 47.0042 49.38C46.7605 50.0362 46.5042 50.2487 43.698 52.105C42.273 53.0487 41.0105 53.8612 40.898 53.905C40.6292 54.0175 39.9605 54.0175 39.6292 53.8987C39.4855 53.8487 39.2605 53.7237 39.1292 53.6175C38.7167 53.2925 38.598 52.9362 38.3542 51.3987C38.2355 50.6425 38.1542 50.005 38.1792 49.9862C38.2042 49.9612 38.4042 49.9112 38.6292 49.8675C39.3167 49.7425 40.8667 49.2737 41.7355 48.93Z" fill="url(#paint6_linear_63_73)"/>
<path d="M30.5042 46.2487C30.3355 46.2987 29.598 46.9987 27.323 49.2612C25.698 50.8862 24.2855 52.3237 24.1855 52.455C24.0355 52.655 24.0042 52.7612 24.0042 53.0487C24.0042 53.655 24.3417 53.9925 24.948 53.9925C25.2355 53.9925 25.3417 53.9612 25.5417 53.8112C25.673 53.7112 27.1105 52.2987 28.7355 50.6737C31.3292 48.0612 31.6917 47.68 31.7542 47.4425C31.8292 47.155 31.7667 46.8175 31.598 46.5675C31.398 46.2862 30.8917 46.1362 30.5042 46.2487Z" fill="black"/>
<path d="M30.5042 46.2487C30.3355 46.2987 29.598 46.9987 27.323 49.2612C25.698 50.8862 24.2855 52.3237 24.1855 52.455C24.0355 52.655 24.0042 52.7612 24.0042 53.0487C24.0042 53.655 24.3417 53.9925 24.948 53.9925C25.2355 53.9925 25.3417 53.9612 25.5417 53.8112C25.673 53.7112 27.1105 52.2987 28.7355 50.6737C31.3292 48.0612 31.6917 47.68 31.7542 47.4425C31.8292 47.155 31.7667 46.8175 31.598 46.5675C31.398 46.2862 30.8917 46.1362 30.5042 46.2487Z" fill="url(#paint7_linear_63_73)"/>
<path d="M29.7167 52.5675C29.8667 52.2862 33.0105 49.1925 33.2542 49.0925C33.548 48.9675 33.7355 48.9737 34.048 49.1112C34.4605 49.2987 34.648 49.705 34.5605 50.205C34.523 50.4175 34.3167 50.6487 32.8417 52.13C31.9167 53.055 31.0855 53.855 30.9917 53.905C30.5855 54.1175 30.0042 53.9487 29.7542 53.5425C29.6042 53.2987 29.5855 52.8112 29.7167 52.5675Z" fill="black"/>
<path d="M29.7167 52.5675C29.8667 52.2862 33.0105 49.1925 33.2542 49.0925C33.548 48.9675 33.7355 48.9737 34.048 49.1112C34.4605 49.2987 34.648 49.705 34.5605 50.205C34.523 50.4175 34.3167 50.6487 32.8417 52.13C31.9167 53.055 31.0855 53.855 30.9917 53.905C30.5855 54.1175 30.0042 53.9487 29.7542 53.5425C29.6042 53.2987 29.5855 52.8112 29.7167 52.5675Z" fill="url(#paint8_linear_63_73)"/>
</g>
<defs>
<filter id="filter0_d_63_73" x="0.823191" y="0.479378" width="78.3536" height="78.3536" filterUnits="userSpaceOnUse" color-interpolation-filters="sRGB">
<feFlood flood-opacity="0" result="BackgroundImageFix"/>
<feColorMatrix in="SourceAlpha" type="matrix" values="0 0 0 0 0 0 0 0 0 0 0 0 0 0 0 0 0 0 127 0" result="hardAlpha"/>
<feOffset dy="1.65619"/>
<feGaussianBlur stdDeviation="3.5884"/>
<feComposite in2="hardAlpha" operator="out"/>
<feColorMatrix type="matrix" values="0 0 0 0 0 0 0 0 0 0 0 0 0 0 0 0 0 0 0.3 0"/>
<feBlend mode="normal" in2="BackgroundImageFix" result="effect1_dropShadow_63_73"/>
<feBlend mode="normal" in="SourceGraphic" in2="effect1_dropShadow_63_73" result="shape"/>
</filter>
<linearGradient id="paint0_linear_63_73" x1="40" y1="6" x2="40" y2="70" gradientUnits="userSpaceOnUse">
<stop stop-color="#FFC924"/>
<stop offset="1" stop-color="#755800"/>
</linearGradient>
<linearGradient id="paint1_linear_63_73" x1="39.9999" y1="53.9972" x2="39.9999" y2="22.0029" gradientUnits="userSpaceOnUse">
<stop stop-color="#111111"/>
<stop offset="1" stop-color="#2F2F2F"/>
</linearGradient>
<linearGradient id="paint2_linear_63_73" x1="39.9999" y1="53.9972" x2="39.9999" y2="22.0029" gradientUnits="userSpaceOnUse">
<stop stop-color="#111111"/>
<stop offset="1" stop-color="#2F2F2F"/>
</linearGradient>
<linearGradient id="paint3_linear_63_73" x1="39.9999" y1="53.9972" x2="39.9999" y2="22.0029" gradientUnits="userSpaceOnUse">
<stop stop-color="#111111"/>
<stop offset="1" stop-color="#2F2F2F"/>
</linearGradient>
<linearGradient id="paint4_linear_63_73" x1="39.9999" y1="53.9972" x2="39.9999" y2="22.0029" gradientUnits="userSpaceOnUse">
<stop stop-color="#111111"/>
<stop offset="1" stop-color="#2F2F2F"/>
</linearGradient>
<linearGradient id="paint5_linear_63_73" x1="39.9999" y1="53.9972" x2="39.9999" y2="22.0029" gradientUnits="userSpaceOnUse">
<stop stop-color="#111111"/>
<stop offset="1" stop-color="#2F2F2F"/>
</linearGradient>
<linearGradient id="paint6_linear_63_73" x1="39.9999" y1="53.9972" x2="39.9999" y2="22.0029" gradientUnits="userSpaceOnUse">
<stop stop-color="#111111"/>
<stop offset="1" stop-color="#2F2F2F"/>
</linearGradient>
<linearGradient id="paint7_linear_63_73" x1="39.9999" y1="53.9972" x2="39.9999" y2="22.0029" gradientUnits="userSpaceOnUse">
<stop stop-color="#111111"/>
<stop offset="1" stop-color="#2F2F2F"/>
</linearGradient>
<linearGradient id="paint8_linear_63_73" x1="39.9999" y1="53.9972" x2="39.9999" y2="22.0029" gradientUnits="userSpaceOnUse">
<stop stop-color="#111111"/>
<stop offset="1" stop-color="#2F2F2F"/>
</linearGradient>
</defs>
</svg>
