<svg width="122" height="121" viewBox="0 0 122 121" fill="none" xmlns="http://www.w3.org/2000/svg">
<g filter="url(#filter0_d_58_80)">
<mask id="path-1-inside-1_58_80" fill="white">
<path d="M12 57.9111C12 30.8787 33.9141 8.9646 60.9465 8.9646C87.9789 8.9646 109.893 30.8787 109.893 57.9111C109.893 84.9435 87.9789 106.858 60.9465 106.858C33.9141 106.858 12 84.9435 12 57.9111Z"/>
</mask>
<path d="M12 57.9111C12 30.8787 33.9141 8.9646 60.9465 8.9646C87.9789 8.9646 109.893 30.8787 109.893 57.9111C109.893 84.9435 87.9789 106.858 60.9465 106.858C33.9141 106.858 12 84.9435 12 57.9111Z" fill="url(#paint0_linear_58_80)" shape-rendering="crispEdges"/>
<path d="M12 56.1859C12 29.1535 33.9141 7.23941 60.9465 7.23941H60.9465C87.9789 7.23941 109.893 29.1535 109.893 56.1859V57.9111C109.893 31.8315 87.9789 10.6898 60.9465 10.6898C33.9141 10.6898 12 31.8315 12 57.9111V56.1859ZM109.893 106.858H12H109.893ZM12 106.858V8.9646V106.858ZM109.893 8.9646V106.858V8.9646Z" fill="#FFE187" mask="url(#path-1-inside-1_58_80)"/>
<path fill-rule="evenodd" clip-rule="evenodd" d="M37.5428 68.1099C38.0596 66.57 39.1564 65.4521 40.6857 64.9142C41.3291 64.6822 41.5506 64.6611 43.6389 64.6611H45.8854L46.8979 65.6208C50.8213 69.3755 55.6096 71.3161 60.9463 71.3161C66.3252 71.3161 71.124 69.3544 75.0896 65.5365L75.9967 64.6611H78.2326C80.2154 64.6611 80.5424 64.6822 81.1225 64.8825C81.924 65.1568 82.367 65.4204 83.0104 66.0111C83.6432 66.6017 84.0756 67.2767 84.3498 68.1099C84.5607 68.7322 84.5713 68.9958 84.5713 73.0986C84.5713 77.2013 84.5607 77.465 84.3498 78.0872C83.833 79.6376 82.6834 80.7978 81.1225 81.3146C80.4686 81.5361 80.4475 81.5361 60.9674 81.5361C44.8939 81.5361 41.3818 81.515 41.0021 81.3884C39.3041 80.8716 38.0807 79.7009 37.5428 78.0872C37.3318 77.465 37.3213 77.2013 37.3213 73.0986C37.3213 68.9853 37.3318 68.7322 37.5428 68.1099ZM75.1846 76.1993C76.3131 75.5349 76.3131 74.0372 75.1846 73.3728C74.8156 73.1514 74.7312 73.1513 61.1814 73.1302L61.1572 73.1302C53.6479 73.1302 47.3408 73.1513 47.1615 73.204C45.6639 73.5626 45.3791 75.4294 46.708 76.1993C47.0771 76.4208 47.1404 76.4208 60.9463 76.4208C74.7521 76.4208 74.8154 76.4208 75.1846 76.1993Z" fill="url(#paint1_linear_58_80)"/>
<path fill-rule="evenodd" clip-rule="evenodd" d="M53.0362 36.2056C54.6921 35.3302 56.7171 34.6552 58.4889 34.4021C59.7124 34.2228 62.5284 34.2755 63.8257 34.497C70.8499 35.6993 76.4081 41.2575 77.6104 48.2818C78.0429 50.8025 77.8319 53.8927 77.0725 56.2868C76.2499 58.8919 74.9421 61.0118 72.8643 63.079C70.7866 65.1673 68.9514 66.3275 66.3253 67.2029C62.9292 68.3314 58.9636 68.3314 55.5675 67.2029C52.9413 66.3275 51.1061 65.1673 49.0284 63.079C46.3811 60.4423 44.8835 57.563 44.2612 53.9665C43.9764 52.279 44.0397 49.115 44.3772 47.6279C45.5479 42.6075 48.6276 38.5365 53.0362 36.2056ZM62.6128 43.3564C62.56 42.1962 62.3807 41.7743 61.7901 41.3841C61.5581 41.2154 61.2839 41.1415 60.9464 41.1415C60.3557 41.1415 59.8495 41.4474 59.5331 41.9747C59.3749 42.2595 59.3116 42.5864 59.28 43.4829C59.2378 44.4743 59.2061 44.622 59.0479 44.622C58.6788 44.622 57.5819 45.2759 57.0968 45.7927C56.8331 46.0775 56.485 46.5837 56.3268 46.9212C56.0737 47.4486 56.0421 47.6489 56.0421 48.6298C56.0421 49.6107 56.0737 49.8005 56.3268 50.349C56.6854 51.1083 57.603 52.0365 58.3413 52.374C58.9952 52.6798 60.0182 52.8486 61.2417 52.8486C61.9694 52.8486 62.1382 52.8802 62.3175 53.0595C62.6444 53.3865 62.6339 54.0298 62.2858 54.399C62.0749 54.6415 62.0222 54.6415 59.7124 54.6415C57.1284 54.6415 56.9069 54.6837 56.369 55.2638C56.1159 55.5275 56.0526 55.7068 56.0104 56.1919C55.9788 56.6982 56.0104 56.8669 56.2214 57.1622C56.6222 57.7529 57.044 57.9111 58.2147 57.9111H59.2272L59.28 58.9552C59.3222 59.7357 59.3854 60.0837 59.5331 60.3474C60.187 61.4654 61.7057 61.4654 62.3597 60.3474C62.5179 60.0732 62.5706 59.7357 62.6128 58.913L62.655 57.8372L63.3405 57.5419C66.03 56.3712 66.6733 52.6904 64.5323 50.697C63.5936 49.8216 62.4862 49.4841 60.5561 49.4736C59.512 49.4736 59.2589 49.3048 59.2589 48.6509C59.2589 48.4046 59.2579 48.234 59.3354 48.114C59.5134 47.8384 60.1055 47.8301 62.0749 47.7861C64.1737 47.7439 64.6378 47.7017 64.9225 47.554C65.8507 47.0372 66.1038 45.9193 65.471 45.1072C65.1124 44.6536 64.6694 44.4849 63.6253 44.4322L62.6655 44.3794L62.6128 43.3564Z" fill="url(#paint2_linear_58_80)"/>
</g>
<defs>
<filter id="filter0_d_58_80" x="0.786237" y="0.338628" width="120.321" height="120.321" filterUnits="userSpaceOnUse" color-interpolation-filters="sRGB">
<feFlood flood-opacity="0" result="BackgroundImageFix"/>
<feColorMatrix in="SourceAlpha" type="matrix" values="0 0 0 0 0 0 0 0 0 0 0 0 0 0 0 0 0 0 127 0" result="hardAlpha"/>
<feOffset dy="2.58779"/>
<feGaussianBlur stdDeviation="5.60688"/>
<feComposite in2="hardAlpha" operator="out"/>
<feColorMatrix type="matrix" values="0 0 0 0 0 0 0 0 0 0 0 0 0 0 0 0 0 0 0.3 0"/>
<feBlend mode="normal" in2="BackgroundImageFix" result="effect1_dropShadow_58_80"/>
<feBlend mode="normal" in="SourceGraphic" in2="effect1_dropShadow_58_80" result="shape"/>
</filter>
<linearGradient id="paint0_linear_58_80" x1="60.9465" y1="8.9646" x2="60.9465" y2="106.858" gradientUnits="userSpaceOnUse">
<stop stop-color="#FFC924"/>
<stop offset="1" stop-color="#755800"/>
</linearGradient>
<linearGradient id="paint1_linear_58_80" x1="60.9463" y1="81.5361" x2="60.9463" y2="34.2942" gradientUnits="userSpaceOnUse">
<stop stop-color="#111111"/>
<stop offset="1" stop-color="#2F2F2F"/>
</linearGradient>
<linearGradient id="paint2_linear_58_80" x1="60.9463" y1="81.5361" x2="60.9463" y2="34.2942" gradientUnits="userSpaceOnUse">
<stop stop-color="#111111"/>
<stop offset="1" stop-color="#2F2F2F"/>
</linearGradient>
</defs>
</svg>
