<svg width="121" height="121" viewBox="0 0 121 121" fill="none" xmlns="http://www.w3.org/2000/svg">
<g filter="url(#filter0_d_59_147)">
<mask id="path-1-inside-1_59_147" fill="white">
<path d="M11.397 57.9111C11.397 30.8787 33.3111 8.9646 60.3435 8.9646C87.3759 8.9646 109.29 30.8787 109.29 57.9111C109.29 84.9435 87.3759 106.858 60.3435 106.858C33.3111 106.858 11.397 84.9435 11.397 57.9111Z"/>
</mask>
<path d="M11.397 57.9111C11.397 30.8787 33.3111 8.9646 60.3435 8.9646C87.3759 8.9646 109.29 30.8787 109.29 57.9111C109.29 84.9435 87.3759 106.858 60.3435 106.858C33.3111 106.858 11.397 84.9435 11.397 57.9111Z" fill="url(#paint0_linear_59_147)" shape-rendering="crispEdges"/>
<path d="M11.397 56.1859C11.397 29.1535 33.3111 7.23941 60.3435 7.23941H60.3435C87.3759 7.23941 109.29 29.1535 109.29 56.1859V57.9111C109.29 31.8315 87.3759 10.6898 60.3435 10.6898C33.3111 10.6898 11.397 31.8315 11.397 57.9111V56.1859ZM109.29 106.858H11.397H109.29ZM11.397 106.858V8.9646V106.858ZM109.29 8.9646V106.858V8.9646Z" fill="#FFE187" mask="url(#path-1-inside-1_59_147)"/>
<path d="M57.9528 32.9736C55.1403 33.2197 52.0231 34.0986 49.3629 35.3994C44.2184 37.9307 40.3629 41.7861 37.8317 46.9307C31.8083 59.2119 36.859 74.1533 49.0934 80.2939C51.5192 81.5127 53.9567 82.2861 56.7106 82.708C58.5504 82.9893 62.1129 82.9893 63.9762 82.708C72.2965 81.4307 79.1637 76.3916 82.8551 68.8916C87.1559 60.1143 85.9137 49.5791 79.6676 41.9502C74.4645 35.5986 66.3317 32.2354 57.9528 32.9736ZM61.3161 43.1924C62.0895 43.5205 62.3708 43.9658 64.0934 47.7393C65.0192 49.7549 65.7809 51.4189 65.7926 51.4307C65.8043 51.4541 67.5036 51.7236 69.5778 52.0518C71.652 52.3682 73.5153 52.708 73.7262 52.79C74.8864 53.2822 75.484 54.6299 75.0504 55.7783C74.8395 56.3291 74.8161 56.3643 70.3395 60.958L69.1442 62.1885L69.7887 66.1143C70.5153 70.5322 70.527 71.0127 69.9997 71.7627C69.4958 72.4775 68.7809 72.8174 67.902 72.7705C67.234 72.7354 66.9879 72.6182 63.8122 70.8252C61.9606 69.7822 60.3903 68.9268 60.3434 68.9268C60.2965 68.9268 58.7028 69.7822 56.8161 70.8252C53.4411 72.6885 53.359 72.7354 52.6676 72.7354C51.7887 72.7354 51.1793 72.4424 50.7223 71.8213C50.0778 70.9307 50.0778 70.8838 50.8278 66.3252L51.5075 62.1768L48.6598 59.2471C46.5504 57.0908 45.7653 56.2002 45.6247 55.8369C45.3668 55.1572 45.4489 54.3018 45.8473 53.7041C46.4333 52.8252 46.7497 52.7197 50.9567 52.0635C53.0426 51.7354 54.8004 51.4307 54.8473 51.3838C54.8942 51.3369 55.7028 49.6611 56.6403 47.6572C57.5895 45.665 58.4684 43.9072 58.6208 43.7549C59.2536 43.0752 60.4606 42.8291 61.3161 43.1924Z" fill="url(#paint1_linear_59_147)"/>
</g>
<defs>
<filter id="filter0_d_59_147" x="0.183209" y="0.338628" width="120.321" height="120.321" filterUnits="userSpaceOnUse" color-interpolation-filters="sRGB">
<feFlood flood-opacity="0" result="BackgroundImageFix"/>
<feColorMatrix in="SourceAlpha" type="matrix" values="0 0 0 0 0 0 0 0 0 0 0 0 0 0 0 0 0 0 127 0" result="hardAlpha"/>
<feOffset dy="2.58779"/>
<feGaussianBlur stdDeviation="5.60688"/>
<feComposite in2="hardAlpha" operator="out"/>
<feColorMatrix type="matrix" values="0 0 0 0 0 0 0 0 0 0 0 0 0 0 0 0 0 0 0.3 0"/>
<feBlend mode="normal" in2="BackgroundImageFix" result="effect1_dropShadow_59_147"/>
<feBlend mode="normal" in="SourceGraphic" in2="effect1_dropShadow_59_147" result="shape"/>
</filter>
<linearGradient id="paint0_linear_59_147" x1="60.3435" y1="8.9646" x2="60.3435" y2="106.858" gradientUnits="userSpaceOnUse">
<stop stop-color="#FFC924"/>
<stop offset="1" stop-color="#755800"/>
</linearGradient>
<linearGradient id="paint1_linear_59_147" x1="60.3401" y1="32.8731" x2="60.3401" y2="82.9189" gradientUnits="userSpaceOnUse">
<stop stop-color="#2F2F2F"/>
<stop offset="1" stop-color="#111111"/>
</linearGradient>
</defs>
</svg>
