<svg width="80" height="79" viewBox="0 0 80 79" fill="none" xmlns="http://www.w3.org/2000/svg">
<g filter="url(#filter0_d_63_61)">
<mask id="path-1-inside-1_63_61" fill="white">
<path d="M8 38C8 20.3269 22.3269 6 40 6C57.6731 6 72 20.3269 72 38C72 55.6731 57.6731 70 40 70C22.3269 70 8 55.6731 8 38Z"/>
</mask>
<path d="M8 38C8 20.3269 22.3269 6 40 6C57.6731 6 72 20.3269 72 38C72 55.6731 57.6731 70 40 70C22.3269 70 8 55.6731 8 38Z" fill="url(#paint0_linear_63_61)" shape-rendering="crispEdges"/>
<path d="M8 36.8959C8 19.2228 22.3269 4.89588 40 4.89588C57.6731 4.89588 72 19.2228 72 36.8959V38C72 20.9367 57.6731 7.10412 40 7.10412C22.3269 7.10412 8 20.9367 8 38V36.8959ZM72 70H8H72ZM8 70V6V70ZM72 6V70V6Z" fill="#FFE187" mask="url(#path-1-inside-1_63_61)"/>
<path fill-rule="evenodd" clip-rule="evenodd" d="M39.145 22.1129C37.0325 22.8441 35.4325 26.1629 34.8013 31.1254C34.6575 32.2629 34.5263 34.5004 34.5825 34.8004C34.6013 34.9129 35.2075 36.0566 35.92 37.3316C36.0962 37.6471 36.2518 37.9252 36.3888 38.1702C37.1888 39.6008 37.3576 39.9026 37.331 39.921C37.3239 39.9259 37.3028 39.9105 37.276 39.891C37.2608 39.8799 37.2437 39.8674 37.2263 39.8566C37.145 39.8066 35.0325 38.5629 32.52 37.0941C30.0138 35.6254 27.9325 34.4004 27.895 34.3691C27.795 34.2691 28.5013 33.6629 29.0013 33.4191C29.7388 33.0566 30.1513 32.9691 31.1138 32.9754C31.77 32.9816 32.0513 33.0066 32.3763 33.1066L32.7888 33.2316L32.8325 32.6941C33.02 30.1879 33.495 27.6941 34.1263 25.8816C34.4325 25.0066 35.0575 23.6816 35.4513 23.0629C35.6138 22.8129 35.7325 22.5941 35.7138 22.5816C35.67 22.5316 34.87 22.7879 34.145 23.0754C31.7825 24.0129 29.6575 25.5941 28.145 27.5254C26.5638 29.5566 25.6138 32.2004 25.6138 34.5816C25.6138 35.0816 25.7263 35.3441 26.0513 35.5691C26.1388 35.6254 28.2825 36.8879 30.8138 38.3691L35.42 41.0629H44.5013L49.3138 38.2066C49.829 37.9009 50.2927 37.6269 50.7097 37.3804C53.6495 35.643 54.2754 35.2731 54.3712 34.7966C54.3971 34.6677 54.3843 34.5309 54.3679 34.3573C54.3596 34.2698 54.3505 34.1729 54.345 34.0629C54.2388 31.9629 53.5825 30.0191 52.37 28.2129C50.9825 26.1379 48.8638 24.3816 46.5013 23.3441C45.7575 23.0191 44.4325 22.5504 44.32 22.5754C44.27 22.5879 44.3513 22.7566 44.5325 23.0316C45.52 24.5441 46.4013 27.1066 46.8263 29.7191C46.9638 30.5629 47.1513 32.2066 47.1888 32.9379C47.2013 33.1504 47.2325 33.2129 47.3013 33.2004C47.3513 33.1879 47.5638 33.1316 47.77 33.0754C48.0263 33.0066 48.4013 32.9691 48.9575 32.9691C49.6388 32.9691 49.845 32.9941 50.2388 33.1129C50.9013 33.3191 51.4825 33.6441 51.82 33.9879L52.1075 34.2816L47.4075 37.0691C44.82 38.6066 42.7013 39.8504 42.6888 39.8441C42.6825 39.8379 43.2825 38.7504 44.0325 37.4316L45.3888 35.0316L45.4138 34.4441C45.4638 33.2691 45.22 30.7754 44.895 29.1816C44.095 25.2441 42.6763 22.7379 40.9013 22.1254C40.4263 21.9629 39.595 21.9566 39.145 22.1129ZM41.3325 33.1254C41.5763 33.2004 41.9638 33.3629 42.195 33.4816C42.62 33.7066 43.2638 34.2816 43.3325 34.5004C43.3575 34.5754 42.8325 35.5691 41.695 37.5879C40.7763 39.2254 40.0075 40.5629 39.9888 40.5629C39.97 40.5629 39.2075 39.2191 38.295 37.5754C36.9513 35.1691 36.6388 34.5691 36.6888 34.4816C36.9138 34.0566 37.6513 33.4879 38.295 33.2441C39.195 32.9066 40.4763 32.8566 41.3325 33.1254Z" fill="url(#paint1_linear_63_61)"/>
<path d="M32.3325 42.9629C32.1013 43.0629 31.895 43.2879 31.8075 43.5191C31.7575 43.6379 31.7388 45.2441 31.7388 48.4879C31.7388 53.0379 31.745 53.2941 31.8575 53.5004C31.92 53.6191 32.0638 53.7816 32.1763 53.8566L32.3825 54.0004H47.595L47.8013 53.8629C47.9138 53.7816 48.0575 53.6191 48.1263 53.5004C48.2325 53.2941 48.2388 53.0629 48.2263 48.3941L48.2262 48.3673C48.2075 43.5689 48.2073 43.5063 48.0763 43.3379C48.0075 43.2441 47.87 43.1066 47.7763 43.0379C47.6138 42.9129 47.52 42.9066 45.17 42.8879L42.7388 42.8691L42.7388 45.8002C42.7389 48.1754 42.7389 48.5876 42.5331 48.8048C42.4899 48.8504 42.4376 48.8875 42.3743 48.9322C42.3688 48.9361 42.3632 48.9401 42.3575 48.9441C42.22 49.0379 42.0638 49.0879 41.8638 49.0879C41.6013 49.0941 41.5013 49.0441 40.7825 48.5691L39.9888 48.0441L39.2138 48.5566C38.3388 49.1379 38.1013 49.2129 37.7388 49.0129C37.62 48.9504 37.4575 48.8004 37.3825 48.6879L37.2388 48.4816V42.8754H34.8825C33.0513 42.8816 32.4763 42.9004 32.3325 42.9629Z" fill="url(#paint2_linear_63_61)"/>
<path d="M39.0513 46.5128V42.8753H40.9263V46.5066L40.4638 46.1941L40.0075 45.8816L39.7013 46.0878C39.6046 46.1523 39.4935 46.227 39.3987 46.2909C39.328 46.3384 39.2663 46.3799 39.2263 46.4066L39.0513 46.5128Z" fill="url(#paint3_linear_63_61)"/>
</g>
<defs>
<filter id="filter0_d_63_61" x="0.823191" y="0.479378" width="78.3536" height="78.3536" filterUnits="userSpaceOnUse" color-interpolation-filters="sRGB">
<feFlood flood-opacity="0" result="BackgroundImageFix"/>
<feColorMatrix in="SourceAlpha" type="matrix" values="0 0 0 0 0 0 0 0 0 0 0 0 0 0 0 0 0 0 127 0" result="hardAlpha"/>
<feOffset dy="1.65619"/>
<feGaussianBlur stdDeviation="3.5884"/>
<feComposite in2="hardAlpha" operator="out"/>
<feColorMatrix type="matrix" values="0 0 0 0 0 0 0 0 0 0 0 0 0 0 0 0 0 0 0.3 0"/>
<feBlend mode="normal" in2="BackgroundImageFix" result="effect1_dropShadow_63_61"/>
<feBlend mode="normal" in="SourceGraphic" in2="effect1_dropShadow_63_61" result="shape"/>
</filter>
<linearGradient id="paint0_linear_63_61" x1="40" y1="6" x2="40" y2="70" gradientUnits="userSpaceOnUse">
<stop stop-color="#FFC924"/>
<stop offset="1" stop-color="#755800"/>
</linearGradient>
<linearGradient id="paint1_linear_63_61" x1="39.9999" y1="54.0004" x2="39.9999" y2="21.9995" gradientUnits="userSpaceOnUse">
<stop stop-color="#111111"/>
<stop offset="1" stop-color="#2F2F2F"/>
</linearGradient>
<linearGradient id="paint2_linear_63_61" x1="39.9999" y1="54.0004" x2="39.9999" y2="21.9995" gradientUnits="userSpaceOnUse">
<stop stop-color="#111111"/>
<stop offset="1" stop-color="#2F2F2F"/>
</linearGradient>
<linearGradient id="paint3_linear_63_61" x1="39.9999" y1="54.0004" x2="39.9999" y2="21.9995" gradientUnits="userSpaceOnUse">
<stop stop-color="#111111"/>
<stop offset="1" stop-color="#2F2F2F"/>
</linearGradient>
</defs>
</svg>
