<svg width="20" height="20" viewBox="0 0 20 20" fill="none" xmlns="http://www.w3.org/2000/svg">
<path d="M2.61719 0.0741997C1.875 0.312481 1.30469 0.902325 1.11719 1.62889C1.0625 1.83982 1.05469 2.61326 1.05469 8.70311C1.05469 13.5156 1.06641 15.6054 1.09766 15.75C1.17578 16.1211 1.39062 16.5078 1.67578 16.7929C1.91016 17.0234 2.17578 17.1875 4.35547 18.4453C6.09375 19.4414 6.85156 19.8594 7.04688 19.9179C7.36719 20.0156 7.92188 20.0273 8.24219 19.9414C8.94531 19.7539 9.51562 19.2265 9.75781 18.539C9.84766 18.2929 9.85938 18.1836 9.875 17.5469L9.89062 16.8359H11.5391C12.5391 16.8359 13.2812 16.8203 13.4219 16.7929C13.5469 16.7695 13.8008 16.6836 13.9805 16.5937C14.5586 16.3164 14.9688 15.8125 15.1367 15.1758C15.1836 14.9883 15.1953 14.6758 15.1953 13.4883C15.1953 12.1328 15.1914 12.0195 15.1211 11.8828C15.0312 11.7031 14.9414 11.6211 14.7539 11.5429C14.4219 11.4062 13.9961 11.5469 13.8164 11.8554C13.7852 11.9101 13.7617 12.3867 13.75 13.3789C13.7266 15 13.7344 14.957 13.4258 15.2109L13.2734 15.332L11.5781 15.3437L9.88672 15.3554L9.875 10.3633L9.86328 5.37107L9.77734 5.11326C9.66406 4.78904 9.44141 4.44529 9.19531 4.21482C8.98047 4.01951 8.83594 3.92967 6.34766 2.49998C5.40234 1.95701 4.61328 1.49607 4.58984 1.47654C4.57031 1.45701 6.50391 1.4492 8.89062 1.45311L13.2266 1.46482L13.3906 1.5742C13.4805 1.63279 13.5938 1.75389 13.6406 1.84764C13.7305 2.00779 13.7305 2.04295 13.75 3.61326C13.7617 4.72654 13.7852 5.23826 13.8164 5.29295C13.8398 5.33592 13.9102 5.41795 13.9727 5.47654C14.2812 5.76951 14.7969 5.71482 15.0664 5.36326L15.1758 5.22264L15.1875 3.57029C15.1992 1.73436 15.1875 1.60545 14.9531 1.15623C14.7852 0.839825 14.3438 0.394512 14.043 0.246075C13.5273 -0.0156441 13.9297 -1.90735e-05 8.10938 0.00388718C3.17188 0.00388718 2.81641 0.00779343 2.61719 0.0741997Z" fill="#686868"/>
<path d="M15.8671 5.74605C15.6601 5.85152 15.5156 6.05464 15.4843 6.29683C15.4414 6.60152 15.5156 6.73433 15.9882 7.2148L16.4179 7.6523L13.707 7.66402C10.7109 7.67573 10.875 7.66402 10.6523 7.92573C10.3476 8.28902 10.457 8.85933 10.8671 9.05855C11.039 9.14058 11.0703 9.14058 13.7304 9.14058H16.4179L15.9882 9.58198C15.5429 10.0351 15.4687 10.164 15.4687 10.4492C15.4687 10.6015 15.5898 10.8554 15.7148 10.9726C15.8632 11.1093 16.1562 11.1757 16.3906 11.125C16.5742 11.0859 16.6367 11.0312 17.6875 9.98433C18.2968 9.38277 18.8281 8.82027 18.871 8.74214C18.9687 8.55464 18.9687 8.27339 18.8671 8.07027C18.7617 7.84761 16.7109 5.80464 16.5156 5.72261C16.3125 5.64058 16.0664 5.64839 15.8671 5.74605Z" fill="#686868"/>
</svg>
