<svg width="80" height="79" viewBox="0 0 80 79" fill="none" xmlns="http://www.w3.org/2000/svg">
<g filter="url(#filter0_d_63_8)">
<mask id="path-1-inside-1_63_8" fill="white">
<path d="M8 38C8 20.3269 22.3269 6 40 6C57.6731 6 72 20.3269 72 38C72 55.6731 57.6731 70 40 70C22.3269 70 8 55.6731 8 38Z"/>
</mask>
<path d="M8 38C8 20.3269 22.3269 6 40 6C57.6731 6 72 20.3269 72 38C72 55.6731 57.6731 70 40 70C22.3269 70 8 55.6731 8 38Z" fill="url(#paint0_linear_63_8)" shape-rendering="crispEdges"/>
<path d="M8 36.8959C8 19.2228 22.3269 4.89588 40 4.89588C57.6731 4.89588 72 19.2228 72 36.8959V38C72 20.9367 57.6731 7.10412 40 7.10412C22.3269 7.10412 8 20.9367 8 38V36.8959ZM72 70H8H72ZM8 70V6V70ZM72 6V70V6Z" fill="#FFE187" mask="url(#path-1-inside-1_63_8)"/>
<g clip-path="url(#clip0_63_8)">
<path d="M44.4063 22.0375C40.3751 22.6437 37.1751 25.2437 35.9126 28.9437C35.4751 30.225 35.4126 30.6625 35.4126 32.3125C35.4126 33.5937 35.4251 33.8562 35.5438 34.3937C35.8938 35.9312 36.5376 37.3562 37.4126 38.5062C37.6563 38.825 37.7251 38.875 38.1688 39.0312C38.9188 39.2937 39.7876 39.7625 40.4376 40.2625L41.0313 40.7187L43.1876 40.7562C45.5376 40.8 45.6626 40.8187 46.4376 41.1937C46.7251 41.3375 46.9938 41.5437 47.3688 41.9187L47.8876 42.45L48.6501 42.2187C52.4688 41.075 55.3376 37.7812 55.9126 33.8687C56.0501 32.9 56.0063 31.0437 55.8188 30.1937C54.9188 26.1312 51.8688 23.0875 47.8001 22.1812C47.3376 22.075 46.9501 22.05 45.9063 22.0312C45.1876 22.0187 44.5126 22.025 44.4063 22.0375ZM46.1688 25.9375C46.4938 26.1312 46.5813 26.3812 46.6126 27.1625L46.6376 27.8562L46.9626 27.9937C47.3876 28.1687 48.0063 28.6375 48.1438 28.8875C48.2001 29 48.2501 29.1875 48.2501 29.3C48.2501 29.575 48.0376 29.95 47.8126 30.0812C47.5501 30.2375 47.1251 30.2187 46.8688 30.0312C46.3188 29.6375 46.0313 29.5 45.7313 29.5C45.1063 29.5 44.7501 29.8437 44.7501 30.4375C44.7501 31.075 45.0438 31.325 45.9001 31.4312C46.9501 31.5562 47.7313 32.0875 48.1751 32.9937C48.4001 33.45 48.4063 33.475 48.4063 34.1875C48.4063 34.875 48.4001 34.925 48.2001 35.325C47.9313 35.8687 47.5501 36.2875 47.0501 36.5812L46.6438 36.8187L46.6126 37.4875C46.5813 38.2437 46.4876 38.4937 46.1688 38.6875C45.9063 38.85 45.4688 38.85 45.2063 38.6875C44.8876 38.4937 44.7938 38.2437 44.7626 37.4687L44.7313 36.7812L44.3063 36.575C43.8501 36.3562 43.3376 35.925 43.0501 35.5375C42.5438 34.8312 43.2688 33.875 44.0751 34.1812C44.1563 34.2125 44.3688 34.3812 44.5501 34.5562C44.9751 34.9687 45.2876 35.125 45.7001 35.125C46.2813 35.125 46.6251 34.775 46.6251 34.1937C46.6251 33.8125 46.4813 33.525 46.2063 33.3625C46.1126 33.3062 45.7813 33.2312 45.4751 33.1937C44.4188 33.0687 43.6438 32.5312 43.2001 31.6312C42.9751 31.175 42.9688 31.15 42.9688 30.4375C42.9688 29.725 42.9751 29.7062 43.2063 29.2375C43.4751 28.6937 44.0126 28.1437 44.4688 27.9562L44.7376 27.85L44.7626 27.1562C44.7938 26.3812 44.8813 26.1312 45.2063 25.9375C45.3251 25.8625 45.5188 25.8125 45.6876 25.8125C45.8563 25.8125 46.0501 25.8625 46.1688 25.9375Z" fill="url(#paint1_linear_63_8)"/>
<path d="M34.1437 40.5937C33.5 40.7062 32.8 40.9562 32.1562 41.2999L31.5938 41.5999V47.4374V53.2812L32.45 53.4812C32.9188 53.5874 33.7062 53.7374 34.2 53.8187C35.075 53.9562 35.2125 53.9624 40.7375 53.9812C46.95 54.0062 46.8875 54.0124 47.95 53.6249C48.875 53.2874 49.8438 52.6624 50.45 52.0124C50.9375 51.4874 55.6375 45.1812 55.8062 44.8187C55.95 44.5062 55.9688 44.3874 55.9688 43.7812C55.9688 43.1687 55.95 43.0624 55.8125 42.7874C55.5 42.1749 54.9688 41.8562 54.2 41.8249C53.7188 41.7999 53.65 41.8124 53.2875 41.9937C52.925 42.1687 52.775 42.3312 50.575 44.8687C49.2938 46.3437 48.1562 47.6312 48.0438 47.7249C47.6938 48.0187 47.125 48.2437 46.5563 48.3187C46.2375 48.3562 44.6062 48.3749 42.3625 48.3624C38.775 48.3437 38.6937 48.3437 38.525 48.2124C38.2125 47.9812 38.0938 47.7624 38.0938 47.4374C38.0938 47.1124 38.2125 46.8937 38.525 46.6624C38.6937 46.5374 38.7875 46.5312 42.0188 46.4999C45.2937 46.4687 45.35 46.4687 45.6 46.3312C46.0188 46.1062 46.2312 45.8937 46.4313 45.4874C46.6 45.1624 46.625 45.0374 46.625 44.6249C46.625 44.2124 46.6 44.0874 46.4313 43.7624C46.2188 43.3312 45.9875 43.1124 45.5312 42.8999C45.225 42.7562 45.175 42.7499 43.3125 42.7499C40.6687 42.7499 40.4812 42.7062 39.4688 41.9374C38.1375 40.9249 36.875 40.4937 35.2875 40.5062C34.9062 40.5062 34.3937 40.5499 34.1437 40.5937Z" fill="url(#paint2_linear_63_8)"/>
<path d="M24.4125 40.9938C24.3187 41.0563 24.1813 41.1938 24.1187 41.2875C24.0063 41.4625 24 41.6938 24 47.4313C24 53.2563 24 53.3938 24.125 53.5938C24.3688 53.9875 24.4813 54.0125 26.1562 53.9875L27.6562 53.9688L28.0938 53.7563C28.6688 53.475 29.1625 52.9813 29.4437 52.4063L29.6562 51.9688V47.4375V42.9063L29.4437 42.4688C29.1625 41.8938 28.6688 41.4 28.0938 41.1188L27.6562 40.9063L26.125 40.8875C24.7 40.875 24.5813 40.8813 24.4125 40.9938Z" fill="url(#paint3_linear_63_8)"/>
</g>
</g>
<defs>
<filter id="filter0_d_63_8" x="0.823191" y="0.479378" width="78.3536" height="78.3536" filterUnits="userSpaceOnUse" color-interpolation-filters="sRGB">
<feFlood flood-opacity="0" result="BackgroundImageFix"/>
<feColorMatrix in="SourceAlpha" type="matrix" values="0 0 0 0 0 0 0 0 0 0 0 0 0 0 0 0 0 0 127 0" result="hardAlpha"/>
<feOffset dy="1.65619"/>
<feGaussianBlur stdDeviation="3.5884"/>
<feComposite in2="hardAlpha" operator="out"/>
<feColorMatrix type="matrix" values="0 0 0 0 0 0 0 0 0 0 0 0 0 0 0 0 0 0 0.3 0"/>
<feBlend mode="normal" in2="BackgroundImageFix" result="effect1_dropShadow_63_8"/>
<feBlend mode="normal" in="SourceGraphic" in2="effect1_dropShadow_63_8" result="shape"/>
</filter>
<linearGradient id="paint0_linear_63_8" x1="40" y1="6" x2="40" y2="70" gradientUnits="userSpaceOnUse">
<stop stop-color="#FFC924"/>
<stop offset="1" stop-color="#755800"/>
</linearGradient>
<linearGradient id="paint1_linear_63_8" x1="45.7028" y1="22.0244" x2="45.7028" y2="42.45" gradientUnits="userSpaceOnUse">
<stop stop-color="#2F2F2F"/>
<stop offset="1" stop-color="#111111"/>
</linearGradient>
<linearGradient id="paint2_linear_63_8" x1="43.7812" y1="40.5059" x2="43.7812" y2="53.991" gradientUnits="userSpaceOnUse">
<stop stop-color="#2F2F2F"/>
<stop offset="1" stop-color="#111111"/>
</linearGradient>
<linearGradient id="paint3_linear_63_8" x1="26.8281" y1="40.8829" x2="26.8281" y2="53.9944" gradientUnits="userSpaceOnUse">
<stop stop-color="#2F2F2F"/>
<stop offset="1" stop-color="#111111"/>
</linearGradient>
<clipPath id="clip0_63_8">
<rect width="32" height="32" fill="white" transform="translate(24 22)"/>
</clipPath>
</defs>
</svg>
