<svg width="121" height="121" viewBox="0 0 121 121" fill="none" xmlns="http://www.w3.org/2000/svg">
<g filter="url(#filter0_d_59_159)">
<mask id="path-1-inside-1_59_159" fill="white">
<path d="M11.397 57.9111C11.397 30.8787 33.3111 8.9646 60.3435 8.9646C87.3759 8.9646 109.29 30.8787 109.29 57.9111C109.29 84.9435 87.3759 106.858 60.3435 106.858C33.3111 106.858 11.397 84.9435 11.397 57.9111Z"/>
</mask>
<path d="M11.397 57.9111C11.397 30.8787 33.3111 8.9646 60.3435 8.9646C87.3759 8.9646 109.29 30.8787 109.29 57.9111C109.29 84.9435 87.3759 106.858 60.3435 106.858C33.3111 106.858 11.397 84.9435 11.397 57.9111Z" fill="url(#paint0_linear_59_159)" shape-rendering="crispEdges"/>
<path d="M11.397 56.1859C11.397 29.1535 33.3111 7.23941 60.3435 7.23941H60.3435C87.3759 7.23941 109.29 29.1535 109.29 56.1859V57.9111C109.29 31.8315 87.3759 10.6898 60.3435 10.6898C33.3111 10.6898 11.397 31.8315 11.397 57.9111V56.1859ZM109.29 106.858H11.397H109.29ZM11.397 106.858V8.9646V106.858ZM109.29 8.9646V106.858V8.9646Z" fill="#FFE187" mask="url(#path-1-inside-1_59_159)"/>
<path d="M49.1255 34.07C50.4494 31.3057 50.513 31.1892 50.9684 30.9668C51.6039 30.6385 52.61 30.7973 53.0549 31.2845C53.1502 31.401 53.7856 32.6508 54.4529 34.07C55.1307 35.4998 55.7662 36.7496 55.8721 36.8661C56.2216 37.258 56.6559 37.3745 59.3354 37.7769C62.1421 38.2112 62.5022 38.3171 62.9047 38.8572C63.2118 39.2597 63.3283 39.9481 63.1906 40.4565C63.0953 40.806 62.6929 41.2826 60.9665 43.0513C59.399 44.6718 58.8271 45.3179 58.7423 45.6144C58.647 45.9533 58.7 46.4617 59.113 48.993C59.5367 51.5137 59.5896 52.0327 59.4943 52.3928C59.2825 53.2083 58.414 53.7697 57.5879 53.632C57.3655 53.6002 56.0522 52.9435 54.6541 52.181C52.377 50.9312 52.0911 50.8041 51.7098 50.8465C51.4238 50.8783 50.4812 51.3337 48.829 52.2339C47.4839 52.9753 46.2023 53.6108 46.0011 53.6426C45.1114 53.7802 44.1582 53.06 44.0629 52.1598C44.0311 51.9056 44.2006 50.6347 44.4442 49.1519C44.8996 46.4723 44.9526 45.7627 44.7619 45.3814C44.6984 45.2543 43.7452 44.2376 42.6437 43.1255C40.6102 41.0708 40.3242 40.6789 40.3242 39.9693C40.3242 39.3232 40.7373 38.6136 41.2986 38.3065C41.4045 38.2535 42.7284 38.0205 44.243 37.7875C45.7575 37.5545 47.1344 37.3003 47.3144 37.205C47.7381 36.9826 47.7698 36.9296 49.1255 34.07Z" fill="url(#paint1_linear_59_159)"/>
<path d="M73.9301 34.7374C74.3326 33.8795 74.7668 33.0746 74.8833 32.9369C75.1269 32.6827 75.7624 32.6191 76.1437 32.8204C76.2708 32.8945 76.6732 33.5935 77.1392 34.5573C77.6159 35.5741 78.0077 36.2519 78.1666 36.3472C78.3043 36.4426 79.0563 36.612 79.84 36.7285C81.7041 37.0039 81.7146 37.0145 82.0112 37.3322C82.2018 37.5335 82.2654 37.7241 82.2654 38.0736C82.2654 38.529 82.2336 38.582 80.9415 39.9059C79.9036 40.965 79.6176 41.3251 79.6176 41.5475C79.6176 41.7064 79.7341 42.5537 79.8824 43.4328C80.0306 44.3012 80.126 45.1591 80.0942 45.318C80.0518 45.4875 79.9036 45.7205 79.7553 45.837C79.2787 46.2077 78.8974 46.1123 77.3299 45.2545C76.4826 44.7884 75.7518 44.4601 75.5823 44.4601C75.4023 44.4601 74.6609 44.7884 73.8136 45.2545C72.1402 46.1653 71.833 46.2183 71.3459 45.7417C70.9646 45.3498 70.9646 45.2121 71.3035 43.168C71.4518 42.2889 71.5471 41.4734 71.5047 41.3569C71.4624 41.2298 70.8904 40.5731 70.2338 39.8953C68.9734 38.6244 68.7828 38.296 68.9311 37.7241C69.0899 37.1416 69.3123 37.0463 71.1023 36.7709C72.0131 36.6226 72.8604 36.4638 72.9663 36.4002C73.0934 36.3367 73.5065 35.6165 73.9301 34.7374Z" fill="url(#paint2_linear_59_159)"/>
<path d="M67.4901 49.8509C67.363 49.9038 67.2147 50.0097 67.1406 50.0945C67.0771 50.1792 66.3251 51.6937 65.4778 53.4731C64.6305 55.2418 63.8044 56.8622 63.6349 57.0635C63.0312 57.826 62.5228 57.9743 58.7735 58.5462C56.6447 58.8746 55.2679 59.1394 55.109 59.2347C54.7595 59.4677 54.5794 59.9443 54.643 60.5056C54.6959 60.9505 54.823 61.0987 57.2272 63.5771C58.7841 65.1869 59.8538 66.3731 60.0127 66.6803C60.2987 67.231 60.3622 68.1419 60.2034 69.2434L60.108 69.8259L60.8388 70.3025L61.559 70.7791L72.5739 70.885L73.22 71.1816C73.5801 71.351 74.0778 71.6899 74.332 71.9547C74.5862 72.2089 74.8404 72.4207 74.904 72.4207C74.9569 72.4207 75.2535 72.1877 75.5606 71.9124L76.1114 71.4146L75.8466 69.9318C75.5394 68.1842 75.55 67.4005 75.9207 66.6697C76.0902 66.352 77.0434 65.2717 78.6109 63.6618C79.956 62.2955 81.0998 61.067 81.174 60.9399C81.3434 60.6539 81.3434 60.0078 81.1845 59.6689C80.9621 59.1605 80.6656 59.0758 77.1705 58.5462C73.453 57.9955 72.9234 57.8366 72.3197 57.0953C72.1502 56.894 71.3029 55.2524 70.4451 53.4519C69.5872 51.6514 68.8034 50.1051 68.6975 50.0097C68.4751 49.8085 67.7867 49.7238 67.4901 49.8509Z" fill="url(#paint3_linear_59_159)"/>
<path d="M79.8401 70.6308C82.2126 68.6608 84.2355 67.0192 84.3414 66.9874C85.1781 66.7756 86.1525 67.0404 86.5973 67.6123C87.0739 68.216 87.1375 69.2963 86.735 69.8894C86.6397 70.0483 83.8118 72.9715 80.465 76.3818C75.3812 81.5715 74.2797 82.6412 73.7925 82.8848L73.21 83.1708L53.6163 83.2767L52.716 83.5627C52.2182 83.7215 51.1697 84.1134 50.3966 84.4311L48.9667 85.0242H33.6519V84.7701C33.6519 84.5688 34.0543 84.1875 35.5371 82.9484C37.8989 80.9784 38.9263 80.0782 40.3243 78.7225C44.8574 74.3271 48.9244 71.8806 53.1185 71.0333C54.6013 70.7367 57.0267 70.652 57.874 70.8638C58.6471 71.065 59.452 71.4569 60.1405 71.9547C60.3132 72.0801 60.4427 72.1804 60.5836 72.2609C61.1685 72.5953 61.9477 72.5899 66.8129 72.6325L72.3733 72.6855L72.8181 72.982C73.7184 73.5646 73.9514 74.772 73.3477 75.6828C73.2416 75.844 73.1626 75.9729 73.0585 76.0766C72.6218 76.5108 71.7426 76.5 66.5693 76.5513L66.5012 76.5519C60.9658 76.6042 60.8704 76.6051 60.6594 76.8266C60.3311 77.1444 60.3523 77.6634 60.7018 78.0129L60.9772 78.2988H72.4686L73.0723 78.0552C74.3433 77.5469 75.3071 76.2653 75.466 74.8779L75.5401 74.2318L79.8401 70.6308Z" fill="url(#paint4_linear_59_159)"/>
</g>
<defs>
<filter id="filter0_d_59_159" x="0.183209" y="0.338628" width="120.321" height="120.321" filterUnits="userSpaceOnUse" color-interpolation-filters="sRGB">
<feFlood flood-opacity="0" result="BackgroundImageFix"/>
<feColorMatrix in="SourceAlpha" type="matrix" values="0 0 0 0 0 0 0 0 0 0 0 0 0 0 0 0 0 0 127 0" result="hardAlpha"/>
<feOffset dy="2.58779"/>
<feGaussianBlur stdDeviation="5.60688"/>
<feComposite in2="hardAlpha" operator="out"/>
<feColorMatrix type="matrix" values="0 0 0 0 0 0 0 0 0 0 0 0 0 0 0 0 0 0 0.3 0"/>
<feBlend mode="normal" in2="BackgroundImageFix" result="effect1_dropShadow_59_159"/>
<feBlend mode="normal" in="SourceGraphic" in2="effect1_dropShadow_59_159" result="shape"/>
</filter>
<linearGradient id="paint0_linear_59_159" x1="60.3435" y1="8.9646" x2="60.3435" y2="106.858" gradientUnits="userSpaceOnUse">
<stop stop-color="#FFC924"/>
<stop offset="1" stop-color="#755800"/>
</linearGradient>
<linearGradient id="paint1_linear_59_159" x1="60.326" y1="85.0242" x2="60.326" y2="30.7942" gradientUnits="userSpaceOnUse">
<stop stop-color="#111111"/>
<stop offset="1" stop-color="#2F2F2F"/>
</linearGradient>
<linearGradient id="paint2_linear_59_159" x1="60.326" y1="85.0242" x2="60.326" y2="30.7942" gradientUnits="userSpaceOnUse">
<stop stop-color="#111111"/>
<stop offset="1" stop-color="#2F2F2F"/>
</linearGradient>
<linearGradient id="paint3_linear_59_159" x1="60.326" y1="85.0242" x2="60.326" y2="30.7942" gradientUnits="userSpaceOnUse">
<stop stop-color="#111111"/>
<stop offset="1" stop-color="#2F2F2F"/>
</linearGradient>
<linearGradient id="paint4_linear_59_159" x1="60.326" y1="85.0242" x2="60.326" y2="30.7942" gradientUnits="userSpaceOnUse">
<stop stop-color="#111111"/>
<stop offset="1" stop-color="#2F2F2F"/>
</linearGradient>
</defs>
</svg>
