<svg width="80" height="79" viewBox="0 0 80 79" fill="none" xmlns="http://www.w3.org/2000/svg">
<g filter="url(#filter0_d_63_85)">
<mask id="path-1-inside-1_63_85" fill="white">
<path d="M8 38C8 20.3269 22.3269 6 40 6C57.6731 6 72 20.3269 72 38C72 55.6731 57.6731 70 40 70C22.3269 70 8 55.6731 8 38Z"/>
</mask>
<path d="M8 38C8 20.3269 22.3269 6 40 6C57.6731 6 72 20.3269 72 38C72 55.6731 57.6731 70 40 70C22.3269 70 8 55.6731 8 38Z" fill="url(#paint0_linear_63_85)" shape-rendering="crispEdges"/>
<path d="M8 36.8959C8 19.2228 22.3269 4.89588 40 4.89588C57.6731 4.89588 72 19.2228 72 36.8959V38C72 20.9367 57.6731 7.10412 40 7.10412C22.3269 7.10412 8 20.9367 8 38V36.8959ZM72 70H8H72ZM8 70V6V70ZM72 6V70V6Z" fill="#FFE187" mask="url(#path-1-inside-1_63_85)"/>
<path d="M38.529 25.3027C39.2006 23.9781 39.226 23.9281 39.5005 23.7908C39.6505 23.7158 39.8755 23.6533 40.0005 23.6533C40.1255 23.6533 40.3505 23.7158 40.5005 23.7908C40.775 23.9281 40.8004 23.9781 41.4721 25.3027L41.4755 25.3096C42.0193 26.3783 42.2068 26.6971 42.3193 26.7346C42.4005 26.7596 43.0693 26.8596 43.8005 26.9658C44.5318 27.0658 45.2068 27.1908 45.3005 27.2408C45.688 27.4408 45.9068 27.8908 45.8443 28.3346C45.8068 28.6033 45.7318 28.6908 44.6693 29.7658L43.538 30.9033L43.7693 32.2971C44.038 33.8971 44.0443 34.0221 43.8693 34.3346C43.6818 34.6721 43.463 34.7971 43.0568 34.8283C42.7005 34.8533 42.6818 34.8471 41.3818 34.1596C40.663 33.7783 40.038 33.4658 40.0068 33.4658C39.9693 33.4658 39.3443 33.7783 38.6255 34.1596C37.3193 34.8471 37.3005 34.8533 36.9443 34.8283C36.538 34.7971 36.3193 34.6721 36.1318 34.3346C35.9568 34.0221 35.9693 33.7908 36.238 32.2283L36.4693 30.8971L35.3568 29.7908C34.1818 28.6158 34.0693 28.4533 34.1505 27.9971C34.2068 27.7221 34.4255 27.4033 34.6568 27.2721C34.7755 27.2033 35.3443 27.0908 36.188 26.9721C36.9255 26.8658 37.6005 26.7596 37.6818 26.7283C37.7943 26.6971 37.9818 26.3846 38.5255 25.3096L38.529 25.3027Z" fill="black"/>
<path d="M38.529 25.3027C39.2006 23.9781 39.226 23.9281 39.5005 23.7908C39.6505 23.7158 39.8755 23.6533 40.0005 23.6533C40.1255 23.6533 40.3505 23.7158 40.5005 23.7908C40.775 23.9281 40.8004 23.9781 41.4721 25.3027L41.4755 25.3096C42.0193 26.3783 42.2068 26.6971 42.3193 26.7346C42.4005 26.7596 43.0693 26.8596 43.8005 26.9658C44.5318 27.0658 45.2068 27.1908 45.3005 27.2408C45.688 27.4408 45.9068 27.8908 45.8443 28.3346C45.8068 28.6033 45.7318 28.6908 44.6693 29.7658L43.538 30.9033L43.7693 32.2971C44.038 33.8971 44.0443 34.0221 43.8693 34.3346C43.6818 34.6721 43.463 34.7971 43.0568 34.8283C42.7005 34.8533 42.6818 34.8471 41.3818 34.1596C40.663 33.7783 40.038 33.4658 40.0068 33.4658C39.9693 33.4658 39.3443 33.7783 38.6255 34.1596C37.3193 34.8471 37.3005 34.8533 36.9443 34.8283C36.538 34.7971 36.3193 34.6721 36.1318 34.3346C35.9568 34.0221 35.9693 33.7908 36.238 32.2283L36.4693 30.8971L35.3568 29.7908C34.1818 28.6158 34.0693 28.4533 34.1505 27.9971C34.2068 27.7221 34.4255 27.4033 34.6568 27.2721C34.7755 27.2033 35.3443 27.0908 36.188 26.9721C36.9255 26.8658 37.6005 26.7596 37.6818 26.7283C37.7943 26.6971 37.9818 26.3846 38.5255 25.3096L38.529 25.3027Z" fill="url(#paint1_linear_63_85)"/>
<path d="M35.8255 38.3846C36.1193 37.7533 36.5943 37.3096 37.1943 37.0908C37.513 36.9721 37.6818 36.9658 40.0943 36.9846L42.6568 36.9971L43.0068 37.1658C43.6693 37.4971 44.1568 38.1158 44.3068 38.8283C44.3568 39.0596 44.3755 41.1096 44.3755 45.7471V52.3408H35.6193L35.6568 38.7471L35.8255 38.3846Z" fill="black"/>
<path d="M35.8255 38.3846C36.1193 37.7533 36.5943 37.3096 37.1943 37.0908C37.513 36.9721 37.6818 36.9658 40.0943 36.9846L42.6568 36.9971L43.0068 37.1658C43.6693 37.4971 44.1568 38.1158 44.3068 38.8283C44.3568 39.0596 44.3755 41.1096 44.3755 45.7471V52.3408H35.6193L35.6568 38.7471L35.8255 38.3846Z" fill="url(#paint2_linear_63_85)"/>
<path d="M28.688 40.3783C27.9943 40.5596 27.388 41.1221 27.1318 41.8158C27.0005 42.1596 27.0005 42.2221 27.013 46.4283L27.0318 50.6846L27.2443 51.0783C27.5005 51.5471 27.888 51.9221 28.363 52.1408L28.7193 52.3096L33.688 52.3471V40.2783L31.363 40.2846C29.5318 40.2846 28.9568 40.3033 28.688 40.3783Z" fill="black"/>
<path d="M28.688 40.3783C27.9943 40.5596 27.388 41.1221 27.1318 41.8158C27.0005 42.1596 27.0005 42.2221 27.013 46.4283L27.0318 50.6846L27.2443 51.0783C27.5005 51.5471 27.888 51.9221 28.363 52.1408L28.7193 52.3096L33.688 52.3471V40.2783L31.363 40.2846C29.5318 40.2846 28.9568 40.3033 28.688 40.3783Z" fill="url(#paint3_linear_63_85)"/>
<path d="M46.313 52.3471V43.5783L48.738 43.6033C50.771 43.627 51.2553 43.6292 51.6486 43.8195C51.774 43.8802 51.8901 43.96 52.0443 44.0658C52.4193 44.3221 52.813 44.8658 52.9318 45.2846C52.988 45.4846 53.0005 46.2471 52.988 48.1221L52.9693 50.6846L52.7568 51.0783C52.5005 51.5471 52.113 51.9221 51.638 52.1408L51.2818 52.3096L46.313 52.3471Z" fill="black"/>
<path d="M46.313 52.3471V43.5783L48.738 43.6033C50.771 43.627 51.2553 43.6292 51.6486 43.8195C51.774 43.8802 51.8901 43.96 52.0443 44.0658C52.4193 44.3221 52.813 44.8658 52.9318 45.2846C52.988 45.4846 53.0005 46.2471 52.988 48.1221L52.9693 50.6846L52.7568 51.0783C52.5005 51.5471 52.113 51.9221 51.638 52.1408L51.2818 52.3096L46.313 52.3471Z" fill="url(#paint4_linear_63_85)"/>
</g>
<defs>
<filter id="filter0_d_63_85" x="0.823191" y="0.479378" width="78.3536" height="78.3536" filterUnits="userSpaceOnUse" color-interpolation-filters="sRGB">
<feFlood flood-opacity="0" result="BackgroundImageFix"/>
<feColorMatrix in="SourceAlpha" type="matrix" values="0 0 0 0 0 0 0 0 0 0 0 0 0 0 0 0 0 0 127 0" result="hardAlpha"/>
<feOffset dy="1.65619"/>
<feGaussianBlur stdDeviation="3.5884"/>
<feComposite in2="hardAlpha" operator="out"/>
<feColorMatrix type="matrix" values="0 0 0 0 0 0 0 0 0 0 0 0 0 0 0 0 0 0 0.3 0"/>
<feBlend mode="normal" in2="BackgroundImageFix" result="effect1_dropShadow_63_85"/>
<feBlend mode="normal" in="SourceGraphic" in2="effect1_dropShadow_63_85" result="shape"/>
</filter>
<linearGradient id="paint0_linear_63_85" x1="40" y1="6" x2="40" y2="70" gradientUnits="userSpaceOnUse">
<stop stop-color="#FFC924"/>
<stop offset="1" stop-color="#755800"/>
</linearGradient>
<linearGradient id="paint1_linear_63_85" x1="40.0001" y1="52.3471" x2="40.0001" y2="23.6533" gradientUnits="userSpaceOnUse">
<stop stop-color="#111111"/>
<stop offset="1" stop-color="#2F2F2F"/>
</linearGradient>
<linearGradient id="paint2_linear_63_85" x1="40.0001" y1="52.3471" x2="40.0001" y2="23.6533" gradientUnits="userSpaceOnUse">
<stop stop-color="#111111"/>
<stop offset="1" stop-color="#2F2F2F"/>
</linearGradient>
<linearGradient id="paint3_linear_63_85" x1="40.0001" y1="52.3471" x2="40.0001" y2="23.6533" gradientUnits="userSpaceOnUse">
<stop stop-color="#111111"/>
<stop offset="1" stop-color="#2F2F2F"/>
</linearGradient>
<linearGradient id="paint4_linear_63_85" x1="40.0001" y1="52.3471" x2="40.0001" y2="23.6533" gradientUnits="userSpaceOnUse">
<stop stop-color="#111111"/>
<stop offset="1" stop-color="#2F2F2F"/>
</linearGradient>
</defs>
</svg>
