<svg width="20" height="20" viewBox="0 0 20 20" fill="none" xmlns="http://www.w3.org/2000/svg">
<path d="M9.68718 1.10161C9.51531 1.18755 9.49968 1.2188 9.07781 2.05083C8.73796 2.7227 8.62077 2.91802 8.55046 2.93755C8.49968 2.95708 8.07781 3.02349 7.61687 3.08989C7.08952 3.16411 6.73406 3.23442 6.65984 3.27739C6.51531 3.35942 6.37859 3.55864 6.34343 3.73052C6.29265 4.01567 6.36296 4.11724 7.09734 4.85161L7.79265 5.54302L7.64812 6.37505C7.48015 7.35161 7.47234 7.49614 7.58171 7.69146C7.6989 7.90239 7.83562 7.98052 8.08952 8.00005C8.31218 8.01567 8.3239 8.01177 9.14031 7.58208C9.58952 7.3438 9.98015 7.14849 10.0036 7.14849C10.0231 7.14849 10.4137 7.3438 10.863 7.58208C11.6755 8.01177 11.6872 8.01567 11.9098 8.00005C12.1637 7.98052 12.3005 7.90239 12.4176 7.69146C12.527 7.49614 12.5231 7.41802 12.3551 6.41802L12.2106 5.54692L12.9176 4.83599C13.5817 4.16411 13.6286 4.10942 13.652 3.94145C13.6911 3.66411 13.5544 3.38286 13.3122 3.25786C13.2536 3.22661 12.8317 3.14849 12.3747 3.08599C11.9176 3.01958 11.4997 2.95708 11.4489 2.94145C11.3786 2.91802 11.2614 2.7188 10.9216 2.05083C10.4997 1.2188 10.4841 1.18755 10.3122 1.10161C10.2184 1.05474 10.0778 1.01567 9.99968 1.01567C9.92156 1.01567 9.78093 1.05474 9.68718 1.10161Z" fill="#4E4E4E"/>
<path d="M8.24609 9.41406C7.87109 9.55078 7.57422 9.82812 7.39062 10.2227L7.28516 10.4492L7.27344 14.6992L7.26172 18.9453H10H12.7344V14.8242C12.7344 11.9258 12.7227 10.6445 12.6914 10.5C12.5977 10.0547 12.293 9.66797 11.8789 9.46094L11.6602 9.35547L10.0586 9.34765C8.55078 9.33594 8.44531 9.33984 8.24609 9.41406Z" fill="#4E4E4E"/>
<path d="M2.92952 11.4688C2.49593 11.582 2.11702 11.9336 1.95686 12.3672C1.87483 12.582 1.87483 12.6211 1.88264 15.25L1.89436 17.9102L2.02718 18.1562C2.18733 18.4492 2.42952 18.6836 2.72639 18.8203L2.94905 18.9258L4.50374 18.9375L6.05452 18.9492V15.1797V11.4062L4.60139 11.4102C3.45686 11.4102 3.09749 11.4219 2.92952 11.4688Z" fill="#4E4E4E"/>
<path d="M13.9453 16.2109V18.9492L15.5 18.9375L17.0508 18.9258L17.2734 18.8203C17.5703 18.6836 17.8125 18.4492 17.9727 18.1562L18.1055 17.9102L18.1172 16.3086C18.125 15.1367 18.1172 14.6602 18.082 14.5352C18.0078 14.2734 17.7617 13.9336 17.5273 13.7734C17.1289 13.5 17.1367 13.5039 15.4609 13.4844L13.9453 13.4688V16.2109Z" fill="#4E4E4E"/>
</svg>
