<svg width="20" height="20" viewBox="0 0 20 20" fill="none" xmlns="http://www.w3.org/2000/svg">
<path d="M9.6875 1.10161C9.51563 1.18755 9.5 1.2188 9.07813 2.05083C8.73828 2.7227 8.62109 2.91802 8.55078 2.93755C8.5 2.95708 8.07813 3.02349 7.61719 3.08989C7.08984 3.16411 6.73438 3.23442 6.66016 3.27739C6.51563 3.35942 6.37891 3.55864 6.34375 3.73052C6.29297 4.01567 6.36328 4.11724 7.09766 4.85161L7.79297 5.54302L7.64844 6.37505C7.48047 7.35161 7.47266 7.49614 7.58203 7.69146C7.69922 7.90239 7.83594 7.98052 8.08984 8.00005C8.3125 8.01567 8.32422 8.01177 9.14063 7.58208C9.58984 7.3438 9.98047 7.14849 10.0039 7.14849C10.0234 7.14849 10.4141 7.3438 10.8633 7.58208C11.6758 8.01177 11.6875 8.01567 11.9102 8.00005C12.1641 7.98052 12.3008 7.90239 12.418 7.69146C12.5273 7.49614 12.5234 7.41802 12.3555 6.41802L12.2109 5.54692L12.918 4.83599C13.582 4.16411 13.6289 4.10942 13.6523 3.94145C13.6914 3.66411 13.5547 3.38286 13.3125 3.25786C13.2539 3.22661 12.832 3.14849 12.375 3.08599C11.918 3.01958 11.5 2.95708 11.4492 2.94145C11.3789 2.91802 11.2617 2.7188 10.9219 2.05083C10.5 1.2188 10.4844 1.18755 10.3125 1.10161C10.2188 1.05474 10.0781 1.01567 10 1.01567C9.92188 1.01567 9.78125 1.05474 9.6875 1.10161Z" fill="#101011"/>
<path d="M8.24609 9.41406C7.87109 9.55078 7.57422 9.82812 7.39062 10.2227L7.28516 10.4492L7.27344 14.6992L7.26172 18.9453H10H12.7344V14.8242C12.7344 11.9258 12.7227 10.6445 12.6914 10.5C12.5977 10.0547 12.293 9.66797 11.8789 9.46094L11.6602 9.35547L10.0586 9.34765C8.55078 9.33594 8.44531 9.33984 8.24609 9.41406Z" fill="#101011"/>
<path d="M2.92969 11.4688C2.49609 11.582 2.11719 11.9336 1.95703 12.3672C1.875 12.582 1.875 12.6211 1.88281 15.25L1.89453 17.9102L2.02734 18.1562C2.1875 18.4492 2.42969 18.6836 2.72656 18.8203L2.94922 18.9258L4.50391 18.9375L6.05469 18.9492V15.1797V11.4062L4.60156 11.4102C3.45703 11.4102 3.09766 11.4219 2.92969 11.4688Z" fill="#101011"/>
<path d="M13.9453 16.2109V18.9492L15.5 18.9375L17.0508 18.9258L17.2734 18.8203C17.5703 18.6836 17.8125 18.4492 17.9727 18.1562L18.1055 17.9102L18.1172 16.3086C18.125 15.1367 18.1172 14.6602 18.082 14.5352C18.0078 14.2734 17.7617 13.9336 17.5273 13.7734C17.1289 13.5 17.1367 13.5039 15.4609 13.4844L13.9453 13.4688V16.2109Z" fill="#101011"/>
</svg>
