<svg width="36" height="36" viewBox="0 0 36 36" fill="none" xmlns="http://www.w3.org/2000/svg">
<circle cx="18" cy="18" r="18" fill="#09A6C9"/>
<path d="M17.2619 9.0246C16.6466 9.12304 16.1122 9.30585 15.7009 9.55194C15.0646 9.93163 14.4845 10.5082 14.1048 11.134C13.908 11.4574 13.7322 11.9074 13.6337 12.3223C13.5318 12.7617 13.5072 13.6406 13.5845 14.0836C13.8095 15.3773 14.5865 16.4742 15.7572 17.1457C16.9103 17.8066 18.4466 17.8629 19.7087 17.2933C20.1306 17.1035 20.5279 16.8117 20.9392 16.4039C21.8603 15.4828 22.2646 14.4351 22.2083 13.1414C22.1556 11.9918 21.7654 11.0883 20.9638 10.2762C20.324 9.62577 19.5259 9.20741 18.6435 9.05272C18.3658 9.0035 17.4939 8.98593 17.2619 9.0246Z" fill="white"/>
<path d="M13.957 17.7047C13.5141 17.7715 13.2188 17.8594 12.8602 18.0387C12.1746 18.3762 11.6578 18.9352 11.25 19.7754C10.7367 20.8336 10.4766 22.1309 10.4766 23.6637C10.4766 24.5918 10.5434 24.9223 10.8387 25.5059C10.9477 25.7203 11.0602 25.8645 11.3027 26.107C11.6473 26.4551 11.9461 26.652 12.3645 26.7996C12.9445 27.0105 12.7512 27.0035 18.1266 26.993L23.0449 26.9824L23.3438 26.891C23.7234 26.7715 23.9238 26.6836 24.177 26.5219C24.7641 26.1492 25.1965 25.5586 25.3828 24.8906C25.4953 24.4723 25.527 23.973 25.4883 23.2031C25.3125 19.7578 24.0047 17.8172 21.7793 17.6941C21.3012 17.6695 21.2941 17.6695 20.475 18.1969C19.8422 18.6012 19.4027 18.8016 18.8191 18.9527C18.3797 19.0687 17.5922 19.0687 17.1562 18.9562C16.534 18.7945 16.1156 18.6012 15.4828 18.1898C15.2508 18.0387 14.966 17.8629 14.843 17.7996C14.6391 17.6941 14.5934 17.6836 14.3332 17.6871C14.175 17.6906 14.0062 17.6977 13.957 17.7047Z" fill="white"/>
</svg>
