<svg width="36" height="36" viewBox="0 0 36 36" fill="none" xmlns="http://www.w3.org/2000/svg">
<circle cx="18" cy="18" r="18" fill="#F68F29"/>
<path d="M17.2827 10.5187C16.439 10.5926 15.5038 10.8562 14.7058 11.2465C13.1624 12.0058 12.0058 13.1625 11.2464 14.7058C9.43935 18.3902 10.9546 22.8726 14.6249 24.7148C15.3526 25.0804 16.0839 25.3125 16.9101 25.439C17.462 25.5234 18.5308 25.5234 19.0897 25.439C21.5858 25.0558 23.646 23.5441 24.7534 21.2941C26.0436 18.6609 25.671 15.5004 23.7972 13.2117C22.2362 11.3062 19.7964 10.2972 17.2827 10.5187ZM18.2917 13.5844C18.5237 13.6828 18.6081 13.8164 19.1249 14.9484C19.4026 15.5531 19.6311 16.0523 19.6347 16.0558C19.6382 16.0629 20.1479 16.1437 20.7702 16.2422C21.3925 16.3371 21.9515 16.439 22.0147 16.4636C22.3628 16.6113 22.5421 17.0156 22.412 17.3601C22.3487 17.5254 22.3417 17.5359 20.9987 18.914L20.6401 19.2832L20.8335 20.4609C21.0515 21.7863 21.055 21.9304 20.8968 22.1554C20.7456 22.3699 20.5311 22.4719 20.2675 22.4578C20.0671 22.4472 19.9933 22.4121 19.0405 21.8742C18.4851 21.5613 18.014 21.3047 17.9999 21.3047C17.9858 21.3047 17.5077 21.5613 16.9417 21.8742C15.9292 22.4332 15.9046 22.4472 15.6972 22.4472C15.4335 22.4472 15.2507 22.3594 15.1136 22.173C14.9202 21.9058 14.9202 21.8918 15.1452 20.5242L15.3491 19.2797L14.4948 18.4008C13.862 17.7539 13.6265 17.4867 13.5843 17.3777C13.5069 17.1738 13.5315 16.9172 13.6511 16.7379C13.8269 16.4742 13.9218 16.4426 15.1839 16.2457C15.8097 16.1472 16.337 16.0558 16.3511 16.0418C16.3651 16.0277 16.6077 15.525 16.889 14.9238C17.1737 14.3261 17.4374 13.7988 17.4831 13.7531C17.6729 13.5492 18.0351 13.4754 18.2917 13.5844Z" fill="white"/>
</svg>
