<svg width="32" height="43" viewBox="0 0 32 43" fill="none" xmlns="http://www.w3.org/2000/svg">
<g filter="url(#filter0_d_127_1187)">
<path d="M1.79919 6.83479C0.996221 6.83479 0.342896 6.18147 0.342896 5.3785V1.79472C0.342896 0.993983 0.996221 0.342896 1.79919 0.342896H30.0528C30.8536 0.342896 31.5046 0.993983 31.5046 1.79472V5.3785C31.5046 6.18147 30.8536 6.83479 30.0528 6.83479H1.79919Z" fill="#CCDAF4"/>
<path d="M30.0528 0.684592C30.6648 0.684592 31.1618 1.18268 31.1618 1.79356V5.37734C31.1618 5.99381 30.6637 6.49189 30.0528 6.49189H1.79915C1.18268 6.49189 0.684592 5.99381 0.684592 5.37734V1.79356C0.684592 1.18156 1.18268 0.684592 1.79915 0.684592H30.0528ZM30.0528 0H1.79915C0.807443 0 0 0.805206 0 1.79468V5.37846C0 6.37016 0.807443 7.1776 1.79915 7.1776H30.0528C31.0423 7.1776 31.8475 6.37016 31.8475 5.37846V1.79468C31.8475 0.804089 31.0423 0 30.0528 0Z" fill="black"/>
<path d="M28.4636 0.68457V1.75334H18.4326V6.49187H6.2149V0.68457H28.4636Z" fill="#FEFEFE"/>
<path d="M29.2667 3.75244H28.2549V6.49192H29.2667V3.75244Z" fill="#9BBBED"/>
<path d="M3.59488 3.75244H2.58084V6.49192H3.59488V3.75244Z" fill="#9BBBED"/>
<path d="M4.68614 12.6332C4.27292 12.6332 3.93677 12.2948 3.93677 11.8794V3.40967H27.912V11.8794C27.912 12.2948 27.5736 12.6332 27.1582 12.6332H4.68614Z" fill="#8287C7"/>
<path d="M29.2667 3.06899H28.2549V3.06787H27.5703H4.27966H3.59506V3.06899H2.58102V3.75358H3.59506V11.8793C3.59506 12.4835 4.08422 12.9749 4.68617 12.9749H27.1593C27.7635 12.9749 28.2549 12.4835 28.2549 11.8793V3.75358H29.2667V3.06899ZM27.5703 11.8805C27.5703 12.1083 27.3871 12.2914 27.1593 12.2914H4.68617C4.46281 12.2914 4.27966 12.1083 4.27966 11.8805V3.75358H27.5703V11.8805Z" fill="black"/>
<path d="M25.5164 3.75244H23.457V12.2903H25.5164V3.75244Z" fill="#A0A7E6"/>
<path d="M8.73215 3.75244H6.67279V12.2903H8.73215V3.75244Z" fill="#A1A6E6"/>
<g opacity="0.4">
<path d="M27.5701 3.75244H4.27948V5.48235H27.5701V3.75244Z" fill="#2E377C"/>
</g>
<path d="M15.9241 39.771C10.4351 39.771 5.29901 36.8227 2.52044 32.0763C1.13227 29.7065 0.399658 26.9983 0.399658 24.2465C0.399658 21.4289 1.16354 18.6671 2.60978 16.2615C5.44754 11.5408 10.4251 8.72205 15.9253 8.72205C21.4143 8.72205 26.5504 11.6704 29.329 16.4167C30.716 18.7865 31.4497 21.4948 31.4497 24.2465C31.4497 27.0653 30.6859 29.826 29.2396 32.2316C26.4007 36.9522 21.4232 39.771 15.9241 39.771Z" fill="#8287C7"/>
<path d="M15.9243 8.94993C21.5574 8.94993 26.4769 11.9976 29.1315 16.5318C30.4582 18.7978 31.221 21.4323 31.221 24.2466C31.221 27.1245 30.4247 29.8149 29.0432 32.1144C26.3685 36.5648 21.4949 39.5432 15.9243 39.5432C10.2912 39.5432 5.37178 36.4955 2.71718 31.9614C1.39043 29.6954 0.627661 27.0609 0.627661 24.2466C0.627661 21.3686 1.42393 18.6783 2.8054 16.3788C5.48011 11.9284 10.3538 8.94993 15.9243 8.94993ZM15.9243 8.49316C10.3437 8.49316 5.29249 11.3533 2.41341 16.1432C0.945952 18.5845 0.170898 21.3865 0.170898 24.2466C0.170898 27.0397 0.914682 29.787 2.32295 32.1925C5.14284 37.0081 10.3538 40 15.9243 40C21.5049 40 26.5562 37.1399 29.4352 32.35C30.9027 29.9087 31.6777 27.1067 31.6777 24.2466C31.6777 21.4535 30.934 18.7062 29.5257 16.3006C26.7058 11.485 21.4937 8.49316 15.9243 8.49316Z" fill="black"/>
<path d="M29.1314 16.5307C26.4768 11.9966 21.5585 8.94885 15.9243 8.94885V24.2455L29.1314 16.5307Z" fill="#CAEEFE"/>
<path d="M15.9243 24.2466L29.0432 32.1144C30.4247 29.8149 31.221 27.1246 31.221 24.2466C31.221 21.4323 30.4571 18.7967 29.1314 16.5319L15.9243 24.2466Z" fill="#9FBAE5"/>
<path d="M15.9243 24.2466V39.5432C21.4948 39.5432 26.3685 36.5648 29.0432 32.1144L15.9243 24.2466Z" fill="#8E9AD4"/>
<path d="M15.9243 24.2466L2.71719 31.9614C5.3718 36.4955 10.2901 39.5432 15.9243 39.5432V24.2466Z" fill="#C9F3FF"/>
<path d="M15.9244 24.2466V8.94995C10.3538 8.94995 5.48016 11.9284 2.80545 16.3788L15.9244 24.2466Z" fill="white"/>
<path d="M2.80545 16.3789C1.42399 18.6784 0.627716 21.3687 0.627716 24.2467C0.627716 27.061 1.3916 29.6966 2.71723 31.9615L15.9244 24.2467L2.80545 16.3789Z" fill="#9FB6EA"/>
<path d="M28.4601 24.1305C28.44 21.946 27.8649 19.89 26.8587 18.1043C24.7446 14.3496 20.7543 11.7832 16.1353 11.7051C11.5676 11.628 7.5304 14.0023 5.27561 17.614C4.16552 19.393 3.49321 21.4725 3.39828 23.7072L16.1766 23.9239L28.4601 24.1305Z" fill="#8693C8"/>
<path d="M3.39822 23.7061C3.39376 23.8155 3.38147 23.9238 3.38147 24.0344C3.38147 28.018 4.97847 30.3956 5.09462 30.5788L16.1765 23.9227L3.39822 23.7061Z" fill="#C9EEFF"/>
<path d="M5.0946 30.5788C7.50128 34.52 11.3252 36.7144 15.7108 36.7882C15.7946 36.7893 15.8761 36.7848 15.9587 36.7837L16.1765 23.9216L5.0946 30.5788Z" fill="#F9FEFF"/>
<path d="M16.1777 23.9227L15.96 36.7848C20.4249 36.7736 24.3582 34.4261 26.5717 30.8803C27.7365 29.0142 28.4267 26.8186 28.4669 24.4599C28.4691 24.3493 28.4624 24.241 28.4613 24.1316L16.1777 23.9227Z" fill="#C6EFFF"/>
<path d="M25.3054 18.7665C23.4203 15.5457 19.9258 13.3813 15.9244 13.3813C11.9676 13.3813 8.50555 15.4965 6.60589 18.6582C5.62424 20.2909 5.05914 22.2029 5.05914 24.2466C5.05914 26.2456 5.6019 28.1174 6.54335 29.7267C8.42849 32.9475 11.9229 35.1118 15.9244 35.1118C19.8812 35.1118 23.3432 32.9966 25.2429 29.835C26.2245 28.2022 26.7896 26.2903 26.7896 24.2466C26.7896 22.2475 26.2468 20.3758 25.3054 18.7665Z" fill="#B6D7F6"/>
<path d="M19.4166 27.1558L16.2203 27.2831C17.0624 26.5885 17.8017 25.761 18.4383 24.8016C18.5164 24.6844 18.5857 24.5716 18.6538 24.4543C19.143 23.6167 19.3875 22.7948 19.3875 21.9773C19.3875 19.8721 18.2026 18.8246 15.8384 18.8246C15.0555 18.8246 14.3162 18.9474 13.6115 19.1864C12.9113 19.431 12.5148 19.6901 12.4322 19.9648C12.3786 20.1022 12.354 20.2485 12.354 20.4004C12.354 20.5523 12.3786 20.7187 12.4322 20.8996C12.5885 21.4479 12.8778 21.9717 13.2888 22.4664C13.4797 22.3201 13.7388 22.1828 14.0716 22.0555C14.4044 21.9281 14.7372 21.8645 15.07 21.8645C15.4028 21.8645 15.6429 21.9382 15.7993 22.0845C15.9512 22.2364 16.0294 22.4564 16.0294 22.7501C16.0294 23.151 15.7848 23.7195 15.28 24.4532C14.6926 25.3142 13.7578 26.4065 12.4802 27.7276C12.4165 27.7868 12.3819 27.9186 12.3819 28.1196C12.3819 28.3206 12.421 28.6188 12.4947 29.0108C12.641 29.7256 12.9012 30.0874 13.2731 30.0874H18.531C18.8392 30.0874 19.0748 29.9456 19.2457 29.6563C19.4121 29.3727 19.4959 29.0253 19.4959 28.6132C19.4948 28.2034 19.4702 27.7142 19.4166 27.1558Z" fill="#D4EFFF"/>
<path d="M19.3105 26.7649L16.2114 26.8888C17.0277 26.2143 17.7447 25.4125 18.3612 24.4822C18.4371 24.3683 18.5041 24.2588 18.57 24.1449C19.0447 23.333 19.2825 22.5356 19.2825 21.7427C19.2825 19.7012 18.1334 18.686 15.8417 18.686C15.0823 18.686 14.3653 18.8044 13.6818 19.0378C13.0028 19.2757 12.6187 19.527 12.5383 19.7928C12.4858 19.9257 12.4623 20.0686 12.4623 20.2149C12.4623 20.3612 12.4858 20.5232 12.5383 20.6985C12.6901 21.2301 12.9705 21.7382 13.3691 22.2173C13.5545 22.0755 13.8058 21.9415 14.1286 21.8186C14.4513 21.6947 14.7741 21.6332 15.0968 21.6332C15.4196 21.6332 15.6519 21.7047 15.8037 21.8465C15.9512 21.994 16.0271 22.2073 16.0271 22.4921C16.0271 22.8818 15.7903 23.4324 15.3012 24.1438C14.7316 24.9791 13.8248 26.0379 12.5863 27.3188C12.5248 27.3758 12.4913 27.5042 12.4913 27.6985C12.4913 27.8928 12.5293 28.1832 12.6008 28.5629C12.7426 29.2564 12.995 29.6071 13.3557 29.6071H18.4539C18.7532 29.6071 18.981 29.4697 19.1474 29.1894C19.3082 28.9136 19.3897 28.5774 19.3897 28.1787C19.3864 27.78 19.3629 27.3054 19.3105 26.7649Z" fill="#7F88CC"/>
<path d="M19.3864 28.1788C19.3864 28.5775 19.306 28.9147 19.1441 29.1895C18.9777 29.4698 18.7499 29.6071 18.4506 29.6071H13.3524C12.9917 29.6071 12.7404 29.2553 12.5975 28.5629C12.526 28.1832 12.488 27.894 12.488 27.6985C12.488 27.5042 12.5215 27.3758 12.5829 27.3188C13.8215 26.0368 14.7283 24.9792 15.2978 24.1438H18.5678C18.5019 24.2577 18.4349 24.3672 18.359 24.4811C17.7414 25.4114 17.0255 26.2132 16.2091 26.8878L19.3082 26.7638C19.363 27.3054 19.3864 27.7801 19.3864 28.1788Z" fill="#5765BD"/>
</g>
<defs>
<filter id="filter0_d_127_1187" x="0" y="0" width="31.8475" height="43" filterUnits="userSpaceOnUse" color-interpolation-filters="sRGB">
<feFlood flood-opacity="0" result="BackgroundImageFix"/>
<feColorMatrix in="SourceAlpha" type="matrix" values="0 0 0 0 0 0 0 0 0 0 0 0 0 0 0 0 0 0 127 0" result="hardAlpha"/>
<feOffset dy="3"/>
<feComposite in2="hardAlpha" operator="out"/>
<feColorMatrix type="matrix" values="0 0 0 0 0 0 0 0 0 0 0 0 0 0 0 0 0 0 0.25 0"/>
<feBlend mode="normal" in2="BackgroundImageFix" result="effect1_dropShadow_127_1187"/>
<feBlend mode="normal" in="SourceGraphic" in2="effect1_dropShadow_127_1187" result="shape"/>
</filter>
</defs>
</svg>
