<svg width="32" height="43" viewBox="0 0 32 43" fill="none" xmlns="http://www.w3.org/2000/svg">
<g filter="url(#filter0_d_127_1248)">
<path d="M1.79922 6.83479C0.996247 6.83479 0.342926 6.18147 0.342926 5.3785V1.79472C0.342926 0.993983 0.996247 0.342896 1.79922 0.342896H30.0529C30.8536 0.342896 31.5047 0.993983 31.5047 1.79472V5.3785C31.5047 6.18147 30.8536 6.83479 30.0529 6.83479H1.79922Z" fill="#E58E61"/>
<path d="M30.0528 0.684592C30.6648 0.684592 31.1618 1.18268 31.1618 1.79356V5.37734C31.1618 5.99381 30.6637 6.49189 30.0528 6.49189H1.79915C1.18268 6.49189 0.684591 5.99381 0.684591 5.37734V1.79356C0.684591 1.18156 1.18268 0.684592 1.79915 0.684592H30.0528ZM30.0528 0H1.79915C0.807437 0 0 0.805206 0 1.79468V5.37845C0 6.37016 0.807437 7.1776 1.79915 7.1776H30.0528C31.0423 7.1776 31.8475 6.37016 31.8475 5.37845V1.79468C31.8463 0.804089 31.0423 0 30.0528 0Z" fill="black"/>
<path d="M28.4635 0.68457V1.75334H18.4325V6.49187H6.21375V0.68457H28.4635Z" fill="#FFC064"/>
<path d="M29.2666 3.75244H28.2548V6.49192H29.2666V3.75244Z" fill="#DC6F4E"/>
<path d="M3.59498 3.75244H2.58093V6.49192H3.59498V3.75244Z" fill="#DC6F4E"/>
<path d="M4.68592 12.6331C4.27271 12.6331 3.93655 12.2947 3.93655 11.8793V3.40955H27.9118V11.8793C27.9118 12.2947 27.5734 12.6331 27.1579 12.6331H4.68592Z" fill="#BC543B"/>
<path d="M29.2666 3.06899H28.2548V3.06787H27.5702H4.27957H3.59498V3.06899H2.58093V3.75358H3.59498V11.8793C3.59498 12.4835 4.08413 12.9749 4.68608 12.9749H27.1592C27.7634 12.9749 28.2548 12.4835 28.2548 11.8793V3.75358H29.2666V3.06899ZM27.5702 11.8805C27.5702 12.1083 27.387 12.2914 27.1592 12.2914H4.68608C4.46272 12.2914 4.27957 12.1083 4.27957 11.8805V3.75358H27.5702V11.8805Z" fill="black"/>
<path d="M25.5151 3.75244H23.4558V12.2903H25.5151V3.75244Z" fill="#D87057"/>
<path d="M8.73084 3.75244H6.67148V12.2903H8.73084V3.75244Z" fill="#D87057"/>
<g opacity="0.4">
<path d="M27.5699 3.75244H4.2793V5.48235H27.5699V3.75244Z" fill="#6B2112"/>
</g>
<path d="M15.9231 39.7711C10.4341 39.7711 5.29794 36.8228 2.51937 32.0765C1.13232 29.7066 0.39859 26.9984 0.39859 24.2466C0.39859 21.4279 1.16247 18.6672 2.60871 16.2616C5.44647 11.5409 10.424 8.72217 15.9231 8.72217C21.4121 8.72217 26.5482 11.6705 29.3268 16.4168C30.7138 18.7867 31.4476 21.4949 31.4476 24.2466C31.4476 27.0654 30.6837 29.8261 29.2374 32.2317C26.4008 36.9524 21.4233 39.7711 15.9231 39.7711Z" fill="#BC543B"/>
<path d="M15.9232 8.94993C21.5563 8.94993 26.4757 11.9976 29.1303 16.5318C30.4571 18.7978 31.2198 21.4323 31.2198 24.2466C31.2198 27.1245 30.4236 29.8149 29.0421 32.1144C26.3674 36.5648 21.4937 39.5432 15.9232 39.5432C10.2901 39.5432 5.37066 36.4955 2.71605 31.9614C1.3893 29.6954 0.626535 27.0609 0.626535 24.2466C0.626535 21.3686 1.42281 18.6783 2.80427 16.3788C5.47898 11.9284 10.3526 8.94993 15.9232 8.94993ZM15.9232 8.49316C10.3426 8.49316 5.29136 11.3533 2.41228 16.1432C0.944821 18.5845 0.169769 21.3865 0.169769 24.2466C0.169769 27.0397 0.91355 29.787 2.32182 32.1925C5.14171 37.0081 10.3526 40 15.9232 40C21.5038 40 26.555 37.1399 29.4341 32.35C30.9016 29.9087 31.6766 27.1067 31.6766 24.2466C31.6766 21.4535 30.9328 18.7062 29.5246 16.3006C26.7047 11.485 21.4937 8.49316 15.9232 8.49316Z" fill="black"/>
<path d="M29.1302 16.5307C26.4756 11.9966 21.5572 8.94885 15.923 8.94885V24.2455L29.1302 16.5307Z" fill="#E58F66"/>
<path d="M15.923 24.2465L29.042 32.1143C30.4234 29.8148 31.2197 27.1245 31.2197 24.2465C31.2197 21.4322 30.4558 18.7966 29.1302 16.5317L15.923 24.2465Z" fill="#D67446"/>
<path d="M15.923 24.2466V39.5432C21.4936 39.5432 26.3672 36.5648 29.042 32.1144L15.923 24.2466Z" fill="#B95635"/>
<path d="M15.9233 24.2466L2.71616 31.9614C5.37076 36.4955 10.2891 39.5432 15.9233 39.5432V24.2466Z" fill="#EA8D63"/>
<path d="M15.9231 24.2466V8.94995C10.3526 8.94995 5.47894 11.9284 2.80423 16.3788L15.9231 24.2466Z" fill="#FFC06B"/>
<path d="M2.80423 16.3789C1.42277 18.6784 0.626495 21.3687 0.626495 24.2467C0.626495 27.061 1.39038 29.6966 2.71601 31.9615L15.9232 24.2467L2.80423 16.3789Z" fill="#D87348"/>
<path d="M28.4596 24.1303C28.4395 21.9459 27.8643 19.8899 26.8581 18.1041C24.744 14.3495 20.7537 11.7831 16.1347 11.7049C11.567 11.6279 7.52982 14.0022 5.27503 17.6139C4.16494 19.3929 3.49263 21.4724 3.39771 23.7071L16.176 23.9237L28.4596 24.1303Z" fill="#BC5532"/>
<path d="M3.39755 23.7059C3.39308 23.8154 3.3808 23.9237 3.3808 24.0343C3.3808 28.0179 4.97781 30.3955 5.09395 30.5787L16.1758 23.9226L3.39755 23.7059Z" fill="#FE9A70"/>
<path d="M5.09412 30.5786C7.5008 34.5198 11.3247 36.7143 15.7103 36.788C15.7941 36.7891 15.8756 36.7846 15.9582 36.7835L16.176 23.9214L5.09412 30.5786Z" fill="#FFBC61"/>
<path d="M16.1764 23.9227L15.9586 36.7847C20.4236 36.7736 24.3569 34.4261 26.5704 30.8803C27.7352 29.0141 28.4254 26.8185 28.4656 24.4598C28.4678 24.3493 28.4611 24.241 28.46 24.1315L16.1764 23.9227Z" fill="#FD9B6D"/>
<path d="M25.3041 18.7665C23.419 15.5457 19.9245 13.3813 15.9231 13.3813C11.9663 13.3813 8.50424 15.4965 6.60458 18.6582C5.62292 20.2909 5.05783 22.2029 5.05783 24.2466C5.05783 26.2456 5.60059 28.1174 6.54204 29.7267C8.42718 32.9475 11.9216 35.1118 15.9231 35.1118C19.8799 35.1118 23.3419 32.9966 25.2416 29.835C26.2232 28.2022 26.7883 26.2903 26.7883 24.2466C26.7883 22.2475 26.2467 20.3758 25.3041 18.7665Z" fill="#EC8A67"/>
<path d="M17.8106 24.3349C17.8151 24.3349 17.8151 24.3304 17.8196 24.3304C19.0268 23.5733 19.6299 22.4877 19.6299 21.0795C19.6299 20.2754 19.3161 19.6388 18.6851 19.1753C18.0586 18.7074 17.1841 18.474 16.0606 18.474C14.9427 18.474 14.0124 18.6091 13.2731 18.876C12.5338 19.143 12.1597 19.545 12.1597 20.0732C12.1597 20.6059 12.4266 21.3408 12.9504 22.2856C13.5534 22.0287 14.1855 21.9025 14.84 21.9025C15.7144 21.9025 16.15 22.146 16.15 22.6374C16.15 22.9177 15.9769 23.1478 15.6351 23.3298C15.2889 23.5074 14.9617 23.6012 14.6434 23.6012L14.1386 23.6157C13.8393 23.6302 13.6752 23.8681 13.6517 24.3316C13.6472 24.374 13.6472 24.4153 13.6472 24.4578C13.6472 24.785 13.7075 25.1178 13.8349 25.4629C13.9566 25.8046 14.0873 25.9777 14.228 25.9777H14.8545C15.4296 26.0157 15.8462 26.076 16.1075 26.1698C16.37 26.2636 16.5006 26.478 16.5006 26.8108C16.5006 27.1425 16.3555 27.4005 16.0707 27.587C15.7859 27.7746 15.4106 27.8673 14.9438 27.8673C14.1956 27.8673 13.4842 27.6618 12.8108 27.2542C12.7873 27.2542 12.698 27.3804 12.5483 27.6328C12.3942 27.8807 12.2401 28.2124 12.0759 28.629C11.9118 29.0411 11.8325 29.4096 11.8325 29.7379C11.8325 30.0975 12.2111 30.4114 12.9694 30.6738C13.7265 30.9362 14.5641 31.0669 15.4855 31.0669C16.9451 31.0669 18.063 30.7252 18.8437 30.0428C19.6243 29.3649 20.0129 28.467 20.0129 27.3625C20.0141 25.9353 19.2792 24.929 17.8106 24.3349Z" fill="#FBA678"/>
<path d="M17.7626 23.9239C17.7671 23.9239 17.7671 23.9194 17.7716 23.9194C18.9475 23.1812 19.535 22.1236 19.535 20.7522C19.535 19.9682 19.2301 19.3484 18.6147 18.8972C18.0039 18.4416 17.1517 18.2137 16.0573 18.2137C14.9684 18.2137 14.0605 18.3455 13.3413 18.6057C12.6209 18.866 12.2569 19.2579 12.2569 19.7728C12.2569 20.2921 12.5171 21.008 13.0275 21.9282C13.6149 21.678 14.2302 21.5541 14.869 21.5541C15.7211 21.5541 16.1455 21.7908 16.1455 22.2699C16.1455 22.5435 15.9769 22.7669 15.6441 22.9445C15.3068 23.1176 14.9874 23.2091 14.6781 23.2091L14.1856 23.2225C13.8941 23.2359 13.7344 23.4682 13.712 23.9194C13.7076 23.9607 13.7076 24.0009 13.7076 24.0423C13.7076 24.3617 13.7668 24.6844 13.8896 25.0217C14.008 25.3545 14.1353 25.5231 14.2727 25.5231H14.8836C15.4442 25.56 15.8496 25.6192 16.1053 25.7096C16.3611 25.8012 16.4884 26.01 16.4884 26.3339C16.4884 26.6578 16.3465 26.908 16.0696 27.09C15.7915 27.272 15.4274 27.3636 14.9707 27.3636C14.2414 27.3636 13.549 27.1626 12.8923 26.7661C12.87 26.7661 12.7829 26.889 12.6366 27.1358C12.4858 27.377 12.3362 27.7009 12.1765 28.1063C12.0168 28.5072 11.9397 28.8679 11.9397 29.1862C11.9397 29.5369 12.3094 29.8429 13.0476 30.0975C13.7857 30.3532 14.6021 30.4806 15.5 30.4806C16.9217 30.4806 18.0117 30.1478 18.7722 29.4821C19.5339 28.821 19.9113 27.9466 19.9113 26.87C19.9091 25.4829 19.1944 24.5024 17.7626 23.9239Z" fill="#BA553A"/>
<path d="M19.9091 26.8722C19.9091 27.9477 19.5305 28.8232 18.77 29.4844C18.0083 30.15 16.9194 30.4828 15.4978 30.4828C14.5999 30.4828 13.7835 30.3554 13.0453 30.0997C12.3071 29.844 11.9374 29.5391 11.9374 29.1884C11.9374 28.869 12.0145 28.5094 12.1742 28.1085C12.3339 27.7031 12.4847 27.3792 12.6343 27.138C12.7806 26.8923 12.8666 26.7683 12.8901 26.7683C13.5467 27.1648 14.2391 27.3658 14.9684 27.3658C15.4241 27.3658 15.7892 27.2742 16.0673 27.0922C16.3454 26.9102 16.4861 26.6589 16.4861 26.3361C16.4861 26.0123 16.3588 25.8023 16.1031 25.7118C15.8473 25.6203 15.4419 25.5611 14.8813 25.5253H14.2704C14.1342 25.5253 14.0057 25.3567 13.8874 25.0239C13.7645 24.6866 13.7053 24.3628 13.7053 24.0445C13.7053 24.0032 13.7053 23.963 13.7098 23.9216H17.7704C17.766 23.9216 17.766 23.9261 17.7615 23.9261C19.1943 24.5024 19.9091 25.4829 19.9091 26.8722Z" fill="#A53C27"/>
</g>
<defs>
<filter id="filter0_d_127_1248" x="0" y="0" width="31.8475" height="43" filterUnits="userSpaceOnUse" color-interpolation-filters="sRGB">
<feFlood flood-opacity="0" result="BackgroundImageFix"/>
<feColorMatrix in="SourceAlpha" type="matrix" values="0 0 0 0 0 0 0 0 0 0 0 0 0 0 0 0 0 0 127 0" result="hardAlpha"/>
<feOffset dy="3"/>
<feComposite in2="hardAlpha" operator="out"/>
<feColorMatrix type="matrix" values="0 0 0 0 0 0 0 0 0 0 0 0 0 0 0 0 0 0 0.25 0"/>
<feBlend mode="normal" in2="BackgroundImageFix" result="effect1_dropShadow_127_1248"/>
<feBlend mode="normal" in="SourceGraphic" in2="effect1_dropShadow_127_1248" result="shape"/>
</filter>
</defs>
</svg>
