<svg width="32" height="40" viewBox="0 0 32 40" fill="none" xmlns="http://www.w3.org/2000/svg">
<path d="M1.79931 6.83588C0.996342 6.83588 0.343018 6.18256 0.343018 5.37959V1.79582C0.343018 0.995081 0.996342 0.343994 1.79931 0.343994H30.0529C30.8536 0.343994 31.5047 0.995081 31.5047 1.79582V5.37959C31.5047 6.18256 30.8536 6.83588 30.0529 6.83588H1.79931Z" fill="#F7D52D"/>
<path d="M30.0516 0.685707C30.6636 0.685707 31.1606 1.18379 31.1606 1.79468V5.37845C31.1606 5.99491 30.6625 6.493 30.0516 6.493H1.79915C1.18268 6.493 0.684588 5.99491 0.684588 5.37845V1.79468C0.684588 1.18268 1.18268 0.685707 1.79915 0.685707H30.0516ZM30.0516 0H1.79915C0.807439 0 0 0.805203 0 1.79468V5.37845C0 6.37015 0.807439 7.17759 1.79915 7.17759H30.0527C31.0422 7.17759 31.8474 6.37015 31.8474 5.37845V1.79468C31.8463 0.805203 31.0411 0 30.0516 0Z" fill="black"/>
<path d="M28.4636 0.685669V1.75332H18.4326V6.49296H6.21384V0.685669H28.4636Z" fill="#FFFA70"/>
<path d="M29.2665 3.75354H28.2547V6.49302H29.2665V3.75354Z" fill="#F3A004"/>
<path d="M3.59494 3.75354H2.5809V6.49302H3.59494V3.75354Z" fill="#F3A004"/>
<path d="M4.68598 12.6343C4.27277 12.6343 3.93661 12.2959 3.93661 11.8805V3.41077H27.9118V11.8805C27.9118 12.2959 27.5734 12.6343 27.158 12.6343H4.68598Z" fill="#FD9B02"/>
<path d="M2.5809 3.06787V3.75246H3.59494V11.8793C3.59494 12.4824 4.08298 12.9749 4.68604 12.9749H27.1591C27.7622 12.9749 28.2547 12.4813 28.2547 11.8793V3.75246H29.2643V3.06787H2.5809ZM27.5701 11.8804C27.5701 12.1083 27.387 12.2914 27.1591 12.2914H4.68604C4.46269 12.2914 4.27953 12.1083 4.27953 11.8804V3.75358H27.5701V11.8804Z" fill="black"/>
<path d="M25.5151 3.75354H23.4558V12.2914H25.5151V3.75354Z" fill="#FFCD2F"/>
<path d="M8.73114 3.75354H6.67178V12.2914H8.73114V3.75354Z" fill="#FFCD2F"/>
<g opacity="0.4">
<path d="M27.57 3.75354H4.27942V5.48344H27.57V3.75354Z" fill="#A85400"/>
</g>
<path d="M15.923 39.7722C10.4339 39.7722 5.29784 36.8239 2.51928 32.0775C1.13223 29.7077 0.398499 26.9995 0.398499 24.2477C0.398499 21.429 1.16239 18.6683 2.60862 16.2627C5.44638 11.542 10.4239 8.72327 15.9241 8.72327C21.4131 8.72327 26.5492 11.6716 29.3278 16.4179C30.7148 18.7878 31.4485 21.496 31.4485 24.2477C31.4485 27.0665 30.6846 29.8272 29.2384 32.2328C26.4007 36.9534 21.4231 39.7722 15.923 39.7722Z" fill="#FA9D01"/>
<path d="M15.9232 8.94993C21.5563 8.94993 26.4757 11.9976 29.1303 16.5318C30.4571 18.7978 31.2198 21.4323 31.2198 24.2466C31.2198 27.1245 30.4236 29.8149 29.0421 32.1143C26.3674 36.5647 21.4937 39.5432 15.9232 39.5432C10.2901 39.5432 5.37068 36.4955 2.71607 31.9613C1.38933 29.6954 0.626565 27.0609 0.626565 24.2466C0.626565 21.3686 1.42284 18.6783 2.8043 16.3788C5.47901 11.9284 10.3527 8.94993 15.9232 8.94993ZM15.9232 8.49316C10.3426 8.49316 5.29139 11.3533 2.41231 16.1432C0.944852 18.5845 0.1698 21.3865 0.1698 24.2466C0.1698 27.0396 0.913582 29.7869 2.32185 32.1925C5.14174 37.0081 10.3527 40 15.9232 40C21.5038 40 26.555 37.1399 29.4341 32.35C30.9015 29.9087 31.6766 27.1067 31.6766 24.2466C31.6766 21.4535 30.9328 18.7062 29.5245 16.3006C26.7047 11.485 21.4926 8.49316 15.9232 8.49316Z" fill="black"/>
<path d="M29.1303 16.5318C26.4757 11.9977 21.5574 8.94995 15.9232 8.94995V24.2466L29.1303 16.5318Z" fill="#FFCF30"/>
<path d="M15.9232 24.2466L29.0421 32.1144C30.4235 29.8149 31.2198 27.1246 31.2198 24.2466C31.2198 21.4323 30.4559 18.7967 29.1303 16.5319L15.9232 24.2466Z" fill="#F79F00"/>
<path d="M15.9232 24.2466V39.5432C21.4937 39.5432 26.3674 36.5647 29.0421 32.1143L15.9232 24.2466Z" fill="#EF7E33"/>
<path d="M15.9232 24.2466L2.71606 31.9613C5.37067 36.4955 10.289 39.5432 15.9232 39.5432V24.2466Z" fill="#FED62E"/>
<path d="M15.9232 24.2466V8.94995C10.3527 8.94995 5.479 11.9284 2.80429 16.3788L15.9232 24.2466Z" fill="#FFFF5E"/>
<path d="M2.80442 16.3788C1.42295 18.6782 0.626678 21.3686 0.626678 24.2466C0.626678 27.0609 1.39056 29.6965 2.71619 31.9613L15.9233 24.2466L2.80442 16.3788Z" fill="#FA9D01"/>
<path d="M28.4602 24.1315C28.4401 21.9471 27.865 19.8911 26.8588 18.1054C24.7447 14.3507 20.7544 11.7843 16.1354 11.7062C11.5677 11.6291 7.53052 14.0034 5.27573 17.6151C4.16564 19.3941 3.49333 21.4736 3.39841 23.7083L16.1767 23.9249L28.4602 24.1315Z" fill="#E47B20"/>
<path d="M3.3984 23.7072C3.39393 23.8166 3.38165 23.9249 3.38165 24.0355C3.38165 28.0191 4.97865 30.3967 5.0948 30.5799L16.1767 23.9238L3.3984 23.7072Z" fill="#FFCE27"/>
<path d="M5.09473 30.5787C7.5014 34.5198 11.3253 36.7143 15.7109 36.788C15.7947 36.7891 15.8762 36.7847 15.9588 36.7835L16.1766 23.9215L5.09473 30.5787Z" fill="#FFFE5B"/>
<path d="M16.1767 23.9227L15.9589 36.7848C20.4238 36.7736 24.3571 34.4261 26.5706 30.8803C27.7354 29.0142 28.4256 26.8186 28.4658 24.4599C28.468 24.3493 28.4613 24.241 28.4602 24.1316L16.1767 23.9227Z" fill="#FFD029"/>
<path d="M25.3043 18.7665C23.4191 15.5457 19.9247 13.3813 15.9233 13.3813C11.9665 13.3813 8.50445 15.4965 6.60479 18.6582C5.62314 20.2909 5.05804 22.2029 5.05804 24.2466C5.05804 26.2456 5.6008 28.1174 6.54225 29.7266C8.42739 32.9475 11.9218 35.1118 15.9233 35.1118C19.88 35.1118 23.3421 32.9966 25.2417 29.835C26.2234 28.2022 26.7885 26.2903 26.7885 24.2466C26.7885 22.2475 26.2457 20.3758 25.3043 18.7665Z" fill="#FDB700"/>
<path d="M17.9869 19.4555C17.8775 19.3774 17.7312 19.3372 17.5536 19.3372H13.2383C13.0697 19.3372 12.9502 19.5013 12.8821 19.8252C12.8139 20.1491 12.7816 20.4874 12.7816 20.8348C12.7816 21.8443 12.9368 22.3458 13.2517 22.3458L14.9548 22.3324V30.094C14.9548 30.2716 15.4886 30.3632 16.5529 30.3632C17.6172 30.3632 18.1511 30.2716 18.1511 30.094V19.7481C18.1511 19.6331 18.0963 19.5326 17.9869 19.4555Z" fill="#FFCE45"/>
<path d="M17.987 18.9352C17.8775 18.857 17.7312 18.8168 17.5537 18.8168H13.2384C13.0698 18.8168 12.9503 18.9809 12.8822 19.3048C12.814 19.6287 12.7816 19.9671 12.7816 20.3144C12.7816 21.324 12.9369 21.8254 13.2518 21.8254L14.9549 21.812V29.5737C14.9549 29.7512 15.4887 29.8428 16.553 29.8428C17.6173 29.8428 18.1512 29.7512 18.1512 29.5737V19.2277C18.1512 19.1127 18.0964 19.0122 17.987 18.9352Z" fill="#CF5726"/>
<path d="M18.1511 23.9528V29.5735C18.1511 29.7511 17.6173 29.8427 16.553 29.8427C15.4887 29.8427 14.9549 29.7511 14.9549 29.5735V23.9528H18.1511Z" fill="#C33A1E"/>
</svg>
