<svg width="24" height="24" viewBox="0 0 24 24" fill="none" xmlns="http://www.w3.org/2000/svg">
<g clip-path="url(#clip0_56_94)">
<path d="M20.2033 0.0357437C17.7611 0.218555 15.1783 0.92168 13.3127 1.91074C10.4018 3.45762 7.58457 6.27949 5.91582 9.33106L5.72363 9.68731L10.0221 13.9857L14.3252 18.2842L14.9018 17.9561C16.8846 16.817 18.6799 15.3029 20.208 13.4701C22.2564 11.0186 23.3814 8.35606 23.8643 4.80762C23.9393 4.27793 23.9674 3.73887 23.9861 2.62324C24.0189 0.860743 24.0002 0.748243 23.6299 0.377932C23.2783 0.0263691 23.1471 0.00293159 21.6611 0.0123062C20.9768 0.0169926 20.3205 0.0263691 20.2033 0.0357437ZM17.1705 4.15606C17.358 4.19356 17.7189 4.32949 17.9768 4.45606C18.9283 4.91543 19.5799 5.73106 19.833 6.78574C20.0111 7.52637 19.908 8.42168 19.5611 9.12012C19.4018 9.43887 18.9893 9.97324 18.7408 10.1795C17.6439 11.0889 16.2564 11.2998 15.0189 10.7373C13.6174 10.0998 12.7596 8.57637 12.9846 7.0998C13.2096 5.61856 14.2689 4.47481 15.7268 4.15137C16.1158 4.06699 16.7674 4.06699 17.1705 4.15606Z" fill="#FFC000"/>
<path d="M15.8437 5.51548C14.8405 5.78267 14.1702 6.84204 14.339 7.88735C14.5265 9.05923 15.6374 9.86548 16.7765 9.66391C18.239 9.40141 18.9937 7.87329 18.3187 6.54673C18.1921 6.29829 17.7937 5.8811 17.5405 5.73579C17.0624 5.45454 16.3968 5.36548 15.8437 5.51548Z" fill="#FFC000"/>
<path d="M4.71123 6.56543C3.97061 6.63106 3.66123 6.67325 3.45967 6.75293C2.96748 6.93575 2.80811 7.13262 1.41592 9.23731C0.708109 10.3061 0.0987342 11.2482 0.0659217 11.3326C-0.0231408 11.5389 -0.0184533 12.0311 0.0752967 12.2982C0.164359 12.5654 0.454984 12.8701 0.726859 12.992C0.942484 13.0904 2.95811 13.4232 3.00498 13.3717C3.01905 13.3529 3.07061 13.1607 3.1128 12.9404C3.50186 11.0795 4.4628 8.92325 5.75186 7.04356L6.14092 6.47168L5.92061 6.47637C5.79405 6.48106 5.25498 6.51856 4.71123 6.56543Z" fill="#FFC000"/>
<path d="M4.96875 11.4029C4.62657 12.3029 4.3125 13.592 4.3125 14.1029C4.3125 14.6607 4.29375 14.6326 6.87657 17.2107C9.52969 19.8545 9.36094 19.7232 10.0688 19.6763C10.2938 19.6623 10.7813 19.5732 11.1563 19.4795C11.7938 19.3154 12.7828 18.992 12.9375 18.8935C12.9938 18.856 12.1922 18.031 9.09375 14.9326C6.94219 12.781 5.16563 11.0185 5.14688 11.0185C5.13282 11.0185 5.05313 11.192 4.96875 11.4029Z" fill="#FFC000"/>
<path d="M2.84075 16.0858C2.68606 16.1092 2.50793 16.2686 1.397 17.3748C0.703246 18.0686 0.103246 18.692 0.0657456 18.7623C-0.0936294 19.067 0.0329331 19.503 0.337621 19.6905C0.520433 19.803 0.886058 19.817 1.06887 19.7186C1.13918 19.6811 1.73918 19.1045 2.40012 18.4389C3.81575 17.0233 3.86731 16.9342 3.66106 16.4702C3.52043 16.1608 3.21575 16.0202 2.84075 16.0858Z" fill="#FFC000"/>
<path d="M16.9688 18.2467C15.8673 19.006 14.4751 19.7467 13.2985 20.206C12.647 20.4639 11.4845 20.8154 10.9688 20.9092C10.8001 20.942 10.6501 20.9795 10.6313 20.9982C10.6126 21.0123 10.6735 21.4904 10.7626 22.0576C10.9454 23.2107 11.0345 23.4779 11.3438 23.7217C11.4423 23.8014 11.611 23.8951 11.7188 23.9326C11.9673 24.0217 12.4688 24.0217 12.6704 23.9373C12.7548 23.9045 13.7016 23.2951 14.7704 22.5873C16.8751 21.1951 17.0673 21.0357 17.2501 20.5435C17.3298 20.3373 17.372 20.0185 17.4423 19.1748C17.4938 18.5701 17.5266 18.031 17.522 17.9748C17.5079 17.8857 17.447 17.9139 16.9688 18.2467Z" fill="#FFC000"/>
<path d="M4.875 18.1951C4.74844 18.2326 4.19531 18.7576 2.48906 20.4545C1.27031 21.6732 0.210937 22.7514 0.135937 22.8498C0.0234375 22.9998 0 23.0795 0 23.2951C0 23.7498 0.253125 24.0029 0.707812 24.0029C0.923437 24.0029 1.00312 23.9795 1.15312 23.867C1.25156 23.792 2.32969 22.7326 3.54844 21.5139C5.49375 19.5545 5.76562 19.2686 5.8125 19.0904C5.86875 18.8748 5.82187 18.6217 5.69531 18.4342C5.54531 18.2232 5.16562 18.1107 4.875 18.1951Z" fill="#FFC000"/>
<path d="M6.9377 20.3279C6.75489 20.4029 4.39708 22.7232 4.28458 22.9342C4.18614 23.117 4.2002 23.4826 4.3127 23.6654C4.5002 23.9701 4.93614 24.0967 5.24083 23.9373C5.31114 23.8998 5.93458 23.2998 6.62833 22.6061C7.73458 21.4951 7.88927 21.3217 7.91739 21.1623C7.98302 20.7873 7.84239 20.4826 7.53302 20.342C7.29864 20.2389 7.15802 20.2342 6.9377 20.3279Z" fill="#FFC000"/>
</g>
<defs>
<clipPath id="clip0_56_94">
<rect width="24" height="24" fill="white" transform="translate(0 0.00292969)"/>
</clipPath>
</defs>
</svg>
