<svg width="36" height="36" viewBox="0 0 36 36" fill="none" xmlns="http://www.w3.org/2000/svg">
<circle cx="18" cy="18" r="18" fill="#5656FF"/>
<g clip-path="url(#clip0_28_63)">
<path d="M14.1678 9.86486C14.1011 9.87189 13.8725 9.8965 13.6581 9.91759C12.3468 10.0512 11.0706 10.4238 10.2198 10.9231C8.91902 11.6859 8.6448 12.5508 9.45339 13.3559C10.2198 14.1258 11.6682 14.6883 13.4928 14.9309C14.0589 15.0047 15.7956 15.0152 16.3475 14.9484C18.2882 14.7094 19.8315 14.1188 20.5803 13.3242C20.8792 13.0043 20.9987 12.7512 20.9987 12.4277C20.9987 12.0797 20.8792 11.8371 20.5346 11.4961C19.7682 10.7332 18.4147 10.1988 16.6112 9.94571C16.1436 9.87892 14.5089 9.82618 14.1678 9.86486Z" fill="white"/>
<path d="M9 15.6023C9 16.1016 9.03516 16.2492 9.20391 16.4988C9.79453 17.3566 11.3871 18.0633 13.3348 18.334C13.834 18.4043 15.0434 18.4676 15.3141 18.4395L15.532 18.4184L15.6445 18.1547C15.7887 17.8242 16.1543 17.2125 16.4039 16.8891C16.5094 16.752 16.5938 16.6359 16.5938 16.6254C16.5938 16.6184 16.4707 16.6219 16.323 16.6324C14.8078 16.7695 13.2574 16.6641 11.8125 16.323C10.9863 16.1297 9.8332 15.6762 9.28125 15.3246C9.17578 15.2578 9.0668 15.1875 9.0457 15.1734C9.01055 15.1523 9 15.2473 9 15.6023Z" fill="white"/>
<path d="M21.1813 15.8801C20.7032 15.9398 20.0915 16.1262 19.6133 16.3582C17.7501 17.2617 16.6075 19.1777 16.7094 21.2449C16.8571 24.2754 19.5747 26.5289 22.5629 26.1035C23.143 26.0226 23.4665 25.9242 24.029 25.6746C25.059 25.2105 25.952 24.3387 26.4864 23.284C26.6305 22.9957 26.8344 22.4051 26.9118 22.0429C26.9926 21.6808 27.0208 20.6754 26.9645 20.2887C26.7184 18.5906 25.6813 17.1527 24.1485 16.3828C23.6879 16.1472 23.2344 16.0031 22.6754 15.9082C22.4012 15.8625 21.4661 15.8414 21.1813 15.8801Z" fill="white"/>
<path d="M9 19.0652C9 19.5223 9.00352 19.5434 9.1125 19.7578C9.25664 20.0461 9.60117 20.3941 9.99492 20.6508C11.0953 21.3715 13.0289 21.8637 14.741 21.8672H15.082L15.0574 21.7688C15.0223 21.6422 15.0223 20.4504 15.0539 20.2641L15.082 20.1199L14.4035 20.0988C12.6949 20.0461 11.0496 19.6594 9.74883 19.0055C9.56953 18.9176 9.3375 18.7875 9.23203 18.7207C9.12656 18.6539 9.02812 18.5977 9.01758 18.5977C9.00703 18.5977 9 18.8086 9 19.0652Z" fill="white"/>
<path d="M9 22.4578C9 23.0871 9.07734 23.2805 9.50273 23.6918C10.6031 24.7606 13.1309 25.4109 15.6586 25.2738C16.0453 25.2563 16.3828 25.2281 16.4074 25.2141C16.4391 25.193 16.3969 25.1086 16.2457 24.8906C16.0172 24.5602 15.7395 24.0645 15.6059 23.7586L15.5215 23.5547H15.0152C13.6055 23.5547 12.1465 23.3262 10.9301 22.9219C10.3781 22.7391 9.6293 22.4016 9.28125 22.1801C9.17578 22.1133 9.0668 22.043 9.0457 22.0289C9.01055 22.0078 9 22.1027 9 22.4578Z" fill="white"/>
</g>
<defs>
<clipPath id="clip0_28_63">
<rect width="18" height="18" fill="white" transform="translate(9 9)"/>
</clipPath>
</defs>
</svg>
